<svg width="33" height="33" viewBox="0 0 33 33" fill="none" xmlns="http://www.w3.org/2000/svg">
<g clip-path="url(#clip0_15075_124058)">
<rect x="0.5" y="0.605957" width="32" height="32" rx="16" fill="#C4C4C4"/>
<rect width="32" height="32" transform="translate(0.5 0.605957)" fill="#00ADB5"/>
<path d="M19.7378 15.8459C19.4224 15.8459 19.1664 15.5899 19.1664 15.2745V11.9815C19.1664 11.6478 19.0041 11.3537 18.7214 11.1754C18.4395 10.9972 18.1035 10.9781 17.8018 11.1229L17.5915 11.2242C17.2129 11.3941 16.7953 11.3598 16.4624 11.1434C16.1287 10.9263 15.929 10.5591 15.929 10.1606L14.7854 10.1316C14.2605 10.1316 13.833 10.5591 13.833 11.084V15.2745C13.833 15.5899 13.577 15.8459 13.2616 15.8459C12.9462 15.8459 12.6902 15.5899 12.6902 15.2745V11.084C12.6902 9.9282 13.6296 8.98877 14.7854 8.98877H15.8993C16.5454 8.98877 17.0711 9.51448 17.0711 10.1606L17.3073 10.0928C17.9618 9.77886 18.7176 9.82229 19.3302 10.2086C19.9428 10.5949 20.3092 11.257 20.3092 11.9815V15.2745C20.3092 15.5899 20.0532 15.8459 19.7378 15.8459Z" fill="white"/>
<path d="M13.7717 24.9879C13.6642 24.9879 13.5568 24.9795 13.4494 24.962L12.0528 24.7395C11.0974 24.5871 10.4041 23.7947 10.4041 22.8553V21.3132C10.4041 21.0648 10.5648 20.8447 10.801 20.7692C12.2654 20.3022 13.8753 20.3022 15.3397 20.7692C15.5766 20.8447 15.7374 21.0648 15.7374 21.3132V23.0786C15.7374 23.6271 15.4943 24.149 15.0692 24.5117C14.7058 24.821 14.2463 24.9879 13.7717 24.9879ZM13.6292 23.8336C13.8844 23.8732 14.1374 23.8039 14.3271 23.6424C14.5001 23.4953 14.5945 23.2949 14.5945 23.0786V21.7452C13.5987 21.4999 12.5427 21.4999 11.5469 21.7452V22.8553C11.5469 23.2294 11.8357 23.5471 12.2326 23.6104L13.6292 23.8336Z" fill="white"/>
<path d="M10.9763 22.3216H9.45253C9.1371 22.3216 8.8811 22.0656 8.8811 21.7501C8.8811 21.4347 9.1371 21.1787 9.45253 21.1787H10.9763C11.2918 21.1787 11.5478 21.4347 11.5478 21.7501C11.5478 22.0656 11.2918 22.3216 10.9763 22.3216Z" fill="white"/>
<path d="M19.225 24.9879C18.7503 24.9879 18.2901 24.821 17.9275 24.5117C17.5023 24.149 17.2593 23.6271 17.2593 23.0786V21.3132C17.2593 21.0648 17.42 20.8447 17.6562 20.7692C19.1206 20.3022 20.7305 20.3022 22.1949 20.7692C22.4318 20.8447 22.5926 21.0648 22.5926 21.3132V22.8553C22.5926 23.7947 21.8993 24.5864 20.9438 24.7395L19.5473 24.962C19.4398 24.9795 19.3324 24.9879 19.225 24.9879ZM19.4574 24.3982H19.465H19.4574ZM18.4021 21.7452V23.0786C18.4021 23.2949 18.4966 23.4953 18.6696 23.6424C18.8585 23.8039 19.1122 23.8732 19.3675 23.8336L20.764 23.6111C21.161 23.5479 21.4498 23.2302 21.4498 22.8561V21.746C20.4539 21.4999 19.3979 21.4999 18.4021 21.7452Z" fill="white"/>
<path d="M23.5454 22.1311H22.2121C21.8966 22.1311 21.6406 21.8751 21.6406 21.5597C21.6406 21.2443 21.8966 20.9883 22.2121 20.9883H23.5454C23.8608 20.9883 24.1168 21.2443 24.1168 21.5597C24.1168 21.8751 23.8608 22.1311 23.5454 22.1311Z" fill="white"/>
<path d="M17.8328 22.3216H15.1662C14.8507 22.3216 14.5947 22.0656 14.5947 21.7501C14.5947 21.4347 14.8507 21.1787 15.1662 21.1787H17.8328C18.1482 21.1787 18.4042 21.4347 18.4042 21.7501C18.4042 22.0656 18.1482 22.3216 17.8328 22.3216Z" fill="white"/>
<path d="M16.4978 18.8914C11.9546 18.8914 7.35498 17.8445 7.35498 15.8438C7.35498 13.8842 11.438 13.1954 13.1935 12.9904C13.5005 12.9554 13.79 13.1779 13.8274 13.4918C13.8639 13.8049 13.6392 14.0891 13.326 14.1257C9.91346 14.5242 8.49784 15.4415 8.49784 15.8438C8.49784 16.4906 11.3215 17.7485 16.4978 17.7485C21.6742 17.7485 24.4978 16.4906 24.4978 15.8438C24.4978 15.4415 23.0822 14.5242 19.6696 14.1257C19.3565 14.0891 19.1317 13.8049 19.1683 13.4918C19.2049 13.1779 19.4936 12.9569 19.8022 12.9904C21.5576 13.1954 25.6407 13.8842 25.6407 15.8438C25.6407 17.8445 21.0411 18.8914 16.4978 18.8914Z" fill="white"/>
</g>
<defs>
<clipPath id="clip0_15075_124058">
<rect x="0.5" y="0.605957" width="32" height="32" rx="16" fill="white"/>
</clipPath>
</defs>
</svg>
