<svg width="316" height="684" viewBox="0 0 316 684" fill="none" xmlns="http://www.w3.org/2000/svg">
<g clip-path="url(#clip0_15075_122643)">
<rect width="315.887" height="684" fill="#00ADB5"/>
<g filter="url(#filter0_f_15075_122643)">
<path d="M-54.0206 21.0598C-130.93 -6.81745 -127.72 -84.3757 -116.636 -110.685C-70.7137 -183.731 -13.5559 -101.068 21.2764 -96.1844C64.8169 -90.0804 134.056 -122.408 168.227 -75.8228C202.398 -29.2376 178.322 36.2396 127.089 89.9374C75.8573 143.635 101.28 143.817 102.212 267.399C102.958 366.265 29.5921 373.075 -5.46752 341.931C-36.1447 314.679 -65.1735 260.409 -22.5472 191.203C30.7356 104.695 38.3554 54.5432 -54.0206 21.0598Z" fill="url(#paint0_angular_15075_122643)"/>
</g>
<g filter="url(#filter1_f_15075_122643)">
<ellipse cx="291.998" cy="91.4816" rx="44.6453" ry="45.9089" fill="#FBF8B3"/>
</g>
<g filter="url(#filter2_f_15075_122643)">
<path d="M27.1236 507.023C-41.8737 448.123 -114.907 493.688 -134.208 518.784C-179.501 603.067 -68.488 612.92 -44.7051 643.835C-14.9765 682.479 -8.23568 766.95 55.399 774.392C119.034 781.834 168.99 722.762 192.718 643.954C216.445 565.145 230.542 589.561 350.225 522.788C445.971 469.369 412.364 394.891 363.133 378.137C320.055 363.477 251.826 365.202 208.43 444.204C154.187 542.957 109.997 577.767 27.1236 507.023Z" fill="url(#paint1_angular_15075_122643)"/>
</g>
</g>
<defs>
<filter id="filter0_f_15075_122643" x="-282.585" y="-300.742" width="626.791" height="819.211" filterUnits="userSpaceOnUse" color-interpolation-filters="sRGB">
<feFlood flood-opacity="0" result="BackgroundImageFix"/>
<feBlend mode="normal" in="SourceGraphic" in2="BackgroundImageFix" result="shape"/>
<feGaussianBlur stdDeviation="80.0246" result="effect1_foregroundBlur_15075_122643"/>
</filter>
<filter id="filter1_f_15075_122643" x="78.8799" y="-122.9" width="426.236" height="428.764" filterUnits="userSpaceOnUse" color-interpolation-filters="sRGB">
<feFlood flood-opacity="0" result="BackgroundImageFix"/>
<feBlend mode="normal" in="SourceGraphic" in2="BackgroundImageFix" result="shape"/>
<feGaussianBlur stdDeviation="84.2365" result="effect1_foregroundBlur_15075_122643"/>
</filter>
<filter id="filter2_f_15075_122643" x="-305.006" y="210.953" width="876.373" height="724.122" filterUnits="userSpaceOnUse" color-interpolation-filters="sRGB">
<feFlood flood-opacity="0" result="BackgroundImageFix"/>
<feBlend mode="normal" in="SourceGraphic" in2="BackgroundImageFix" result="shape"/>
<feGaussianBlur stdDeviation="80.0246" result="effect1_foregroundBlur_15075_122643"/>
</filter>
<radialGradient id="paint0_angular_15075_122643" cx="0" cy="0" r="1" gradientUnits="userSpaceOnUse" gradientTransform="translate(7.01341 91.5797) rotate(-18.6528) scale(180.328 269.923)">
<stop offset="0.0785972" stop-color="#2F80ED"/>
<stop offset="0.3125" stop-color="#00ADB5"/>
<stop offset="0.635417" stop-color="#FBF8B3"/>
<stop offset="0.847376" stop-color="#FA8792"/>
</radialGradient>
<radialGradient id="paint1_angular_15075_122643" cx="0" cy="0" r="1" gradientUnits="userSpaceOnUse" gradientTransform="translate(128.549 527.263) rotate(79.0626) scale(199.974 299.331)">
<stop offset="0.0785972" stop-color="#2F80ED"/>
<stop offset="0.438386" stop-color="#00ADB5"/>
<stop offset="0.661458" stop-color="#FBF8B3"/>
<stop offset="0.847376" stop-color="#FA8792"/>
</radialGradient>
<clipPath id="clip0_15075_122643">
<rect width="315.887" height="684" fill="white"/>
</clipPath>
</defs>
</svg>
