<svg width="519" height="208" viewBox="0 0 519 208" fill="none" xmlns="http://www.w3.org/2000/svg">
<path d="M29.2598 44.3039C32.1436 39.7529 36.2101 36.0628 41.0287 33.6243C46.417 30.7965 52.4286 29.3506 58.5195 29.4173C66.055 29.3259 73.4581 31.3929 79.8467 35.3719C86.3586 39.4934 91.5571 45.3753 94.8342 52.3297C98.7189 60.3092 100.636 69.096 100.426 77.9607C100.627 86.9113 98.7001 95.7824 94.8017 103.85C91.4923 110.827 86.3042 116.753 79.8141 120.97C73.4419 124.966 66.0505 127.055 58.5195 126.989C52.4338 127.134 46.4055 125.789 40.9637 123.074C36.2129 120.563 32.1845 116.887 29.2598 112.394V125.63H0V0H29.2598V44.3039ZM70.7761 77.9607C70.9589 74.8672 70.5086 71.7689 69.4523 68.8539C68.3961 65.9389 66.756 63.268 64.6316 61.0029C62.7522 58.9658 60.4574 57.3518 57.9007 56.269C55.3439 55.1863 52.5843 54.6597 49.8066 54.7246C47.0269 54.6798 44.2686 55.2153 41.7096 56.2967C39.1506 57.378 36.8476 58.9812 34.9492 61.0029C31.0972 65.8918 29.0037 71.9254 29.0037 78.1386C29.0037 84.3518 31.0972 90.3856 34.9492 95.2745C36.8476 97.2961 39.1506 98.8993 41.7096 99.9807C44.2686 101.062 47.0269 101.598 49.8066 101.553C52.5812 101.595 55.3338 101.058 57.8872 99.9768C60.4406 98.8955 62.7381 97.2937 64.6316 95.2745C68.8938 90.536 71.1024 84.3128 70.7761 77.9607ZM204.526 76.6014C204.508 79.4458 204.334 82.2871 204.006 85.1127H138.009C138.125 90.1714 140.13 95.0055 143.633 98.6725C147.011 101.775 151.457 103.467 156.052 103.397C159.24 103.62 162.418 102.848 165.145 101.189C167.872 99.5302 170.012 97.067 171.267 94.1418H202.283C200.648 100.392 197.626 106.197 193.44 111.131C189.255 116.065 184.011 120.002 178.094 122.653C171.479 125.545 164.317 126.99 157.092 126.892C148.427 127.055 139.865 125.005 132.222 120.938C124.999 117.055 119.068 111.163 115.153 103.98C110.899 96.021 108.782 87.1029 109.009 78.0901C108.784 69.0968 110.842 60.1923 114.991 52.2003C118.908 45.0312 124.825 39.1421 132.027 35.2424C139.747 31.2078 148.375 29.2028 157.092 29.4173C165.639 29.2691 174.088 31.2493 181.671 35.1778C188.719 38.9878 194.502 44.7559 198.316 51.7796C202.557 59.4075 204.699 68.0147 204.526 76.7309V76.6014ZM174.681 68.964C174.775 66.7275 174.362 64.4987 173.472 62.4427C172.583 60.3868 171.241 58.5563 169.544 57.087C165.94 54.2895 161.5 52.7703 156.93 52.7703C152.359 52.7703 147.92 54.2895 144.316 57.087C140.863 60.2209 138.678 64.5018 138.171 69.1257L174.681 68.964ZM272.018 100.873V125.501H257.161C246.606 125.501 238.37 122.955 232.453 117.863C226.536 112.653 223.577 104.239 223.577 92.5561V55.0158H211.971V30.9059H223.577V7.83161H252.837V30.9059H271.921V55.0158H252.739V93.0415C252.637 94.1466 252.767 95.2607 253.119 96.3135C253.472 97.3662 254.04 98.3347 254.788 99.1579C256.765 100.574 259.19 101.229 261.615 101.003L272.018 100.873ZM340.291 100.873V125.501H325.466C314.911 125.501 306.664 122.955 300.725 117.863C294.808 112.653 291.882 104.239 291.882 92.5561V55.0158H280.341V30.9059H291.947V7.83161H321.207V30.9059H340.324V55.0158H321.077V93.0415C320.975 94.1466 321.105 95.2607 321.457 96.3135C321.81 97.3662 322.378 98.3347 323.125 99.1579C325.102 100.574 327.528 101.229 329.953 101.003L340.291 100.873ZM445.301 76.6014C445.294 79.4452 445.132 82.2866 444.814 85.1127H378.816C378.917 90.1747 380.925 95.0142 384.441 98.6725C387.843 101.742 392.303 103.387 396.893 103.268C400.064 103.491 403.227 102.73 405.946 101.09C408.664 99.4497 410.806 97.011 412.075 94.1094H443.09C441.457 100.364 438.432 106.174 434.24 111.109C430.047 116.044 424.795 119.978 418.87 122.621C412.267 125.516 405.115 126.961 397.9 126.86C389.225 127.023 380.652 124.973 372.997 120.905C365.795 117.006 359.879 111.117 355.961 103.948C351.707 95.9886 349.59 87.0705 349.817 78.0578C349.592 69.0644 351.65 60.1599 355.799 52.1679C359.704 44.9898 365.623 39.0978 372.835 35.2102C380.521 31.3263 389.013 29.286 397.633 29.2523C406.253 29.2185 414.762 31.1924 422.479 35.016C429.533 38.7812 435.338 44.5034 439.189 51.4884C443.465 59.2078 445.608 67.9181 445.399 76.7309L445.301 76.6014ZM415.456 68.964C415.556 66.7298 415.149 64.5019 414.266 62.4457C413.382 60.3895 412.044 58.5579 410.352 57.087C407.788 54.7367 404.617 53.1441 401.195 52.4874C397.773 51.8308 394.234 52.1363 390.976 53.3696C387.719 54.6029 384.871 56.7151 382.751 59.4696C380.632 62.2241 379.326 65.5118 378.979 68.964H415.456ZM488.931 46.5692C492.158 41.5319 496.55 37.3373 501.74 34.3363C506.888 31.2814 512.783 29.7022 518.776 29.7732V60.4851H510.778C504.962 60.0769 499.192 61.7655 494.523 65.2423C490.881 68.2844 489.061 73.6781 489.061 81.4235V125.404H459.801V30.9059H489.061L488.931 46.5692Z" fill="black"/>
<path d="M245.36 207.72C241.733 207.72 238.48 207.08 235.6 205.8C232.72 204.466 230.427 202.68 228.72 200.44C227.067 198.2 226.16 195.72 226 193H237.28C237.493 194.706 238.32 196.12 239.76 197.24C241.253 198.36 243.093 198.92 245.28 198.92C247.413 198.92 249.067 198.493 250.24 197.64C251.467 196.786 252.08 195.693 252.08 194.36C252.08 192.92 251.333 191.853 249.84 191.16C248.4 190.413 246.08 189.613 242.88 188.76C239.573 187.96 236.853 187.133 234.72 186.28C232.64 185.426 230.827 184.12 229.28 182.36C227.787 180.6 227.04 178.226 227.04 175.24C227.04 172.786 227.733 170.546 229.12 168.52C230.56 166.493 232.587 164.893 235.2 163.72C237.867 162.546 240.987 161.96 244.56 161.96C249.84 161.96 254.053 163.293 257.2 165.96C260.347 168.573 262.08 172.12 262.4 176.6H251.68C251.52 174.84 250.773 173.453 249.44 172.44C248.16 171.373 246.427 170.84 244.24 170.84C242.213 170.84 240.64 171.213 239.52 171.96C238.453 172.706 237.92 173.746 237.92 175.08C237.92 176.573 238.667 177.72 240.16 178.52C241.653 179.266 243.973 180.04 247.12 180.84C250.32 181.64 252.96 182.466 255.04 183.32C257.12 184.173 258.907 185.506 260.4 187.32C261.947 189.08 262.747 191.426 262.8 194.36C262.8 196.92 262.08 199.213 260.64 201.24C259.253 203.266 257.227 204.866 254.56 206.04C251.947 207.16 248.88 207.72 245.36 207.72Z" fill="black"/>
<path d="M303.674 207.72C299.407 207.72 295.567 206.786 292.154 204.92C288.74 203 286.047 200.306 284.074 196.84C282.154 193.373 281.194 189.373 281.194 184.84C281.194 180.306 282.18 176.306 284.154 172.84C286.18 169.373 288.927 166.706 292.394 164.84C295.86 162.92 299.727 161.96 303.994 161.96C308.26 161.96 312.127 162.92 315.594 164.84C319.06 166.706 321.78 169.373 323.754 172.84C325.78 176.306 326.794 180.306 326.794 184.84C326.794 189.373 325.754 193.373 323.674 196.84C321.647 200.306 318.874 203 315.354 204.92C311.887 206.786 307.994 207.72 303.674 207.72ZM303.674 197.96C305.7 197.96 307.594 197.48 309.354 196.52C311.167 195.506 312.607 194.013 313.674 192.04C314.74 190.066 315.274 187.666 315.274 184.84C315.274 180.626 314.154 177.4 311.914 175.16C309.727 172.866 307.034 171.72 303.834 171.72C300.634 171.72 297.94 172.866 295.754 175.16C293.62 177.4 292.554 180.626 292.554 184.84C292.554 189.053 293.594 192.306 295.674 194.6C297.807 196.84 300.474 197.96 303.674 197.96Z" fill="black"/>
<path d="M344.129 184.84C344.129 180.253 345.063 176.253 346.929 172.84C348.796 169.373 351.383 166.706 354.689 164.84C357.996 162.92 361.783 161.96 366.049 161.96C371.543 161.96 376.076 163.346 379.649 166.12C383.276 168.84 385.703 172.68 386.929 177.64H374.849C374.209 175.72 373.116 174.226 371.569 173.16C370.076 172.04 368.209 171.48 365.969 171.48C362.769 171.48 360.236 172.653 358.369 175C356.503 177.293 355.569 180.573 355.569 184.84C355.569 189.053 356.503 192.333 358.369 194.68C360.236 196.973 362.769 198.12 365.969 198.12C370.503 198.12 373.463 196.093 374.849 192.04H386.929C385.703 196.84 383.276 200.653 379.649 203.48C376.023 206.306 371.489 207.72 366.049 207.72C361.783 207.72 357.996 206.786 354.689 204.92C351.383 203 348.796 200.333 346.929 196.92C345.063 193.453 344.129 189.426 344.129 184.84Z" fill="black"/>
<path d="M412.814 157.4C410.841 157.4 409.188 156.786 407.854 155.56C406.574 154.28 405.934 152.706 405.934 150.84C405.934 148.973 406.574 147.426 407.854 146.2C409.188 144.92 410.841 144.28 412.814 144.28C414.788 144.28 416.414 144.92 417.694 146.2C419.028 147.426 419.694 148.973 419.694 150.84C419.694 152.706 419.028 154.28 417.694 155.56C416.414 156.786 414.788 157.4 412.814 157.4ZM418.334 162.68V207H407.134V162.68H418.334Z" fill="black"/>
<path d="M438.52 184.68C438.52 180.2 439.4 176.226 441.16 172.76C442.973 169.293 445.4 166.626 448.44 164.76C451.533 162.893 454.973 161.96 458.76 161.96C462.067 161.96 464.947 162.626 467.4 163.96C469.907 165.293 471.907 166.973 473.4 169V162.68H484.68V207H473.4V200.52C471.96 202.6 469.96 204.333 467.4 205.72C464.893 207.053 461.987 207.72 458.68 207.72C454.947 207.72 451.533 206.76 448.44 204.84C445.4 202.92 442.973 200.226 441.16 196.76C439.4 193.24 438.52 189.213 438.52 184.68ZM473.4 184.84C473.4 182.12 472.867 179.8 471.8 177.88C470.733 175.906 469.293 174.413 467.48 173.4C465.667 172.333 463.72 171.8 461.64 171.8C459.56 171.8 457.64 172.306 455.88 173.32C454.12 174.333 452.68 175.826 451.56 177.8C450.493 179.72 449.96 182.013 449.96 184.68C449.96 187.346 450.493 189.693 451.56 191.72C452.68 193.693 454.12 195.213 455.88 196.28C457.693 197.346 459.613 197.88 461.64 197.88C463.72 197.88 465.667 197.373 467.48 196.36C469.293 195.293 470.733 193.8 471.8 191.88C472.867 189.906 473.4 187.56 473.4 184.84Z" fill="black"/>
<path d="M518.819 147.8V207H507.619V147.8H518.819Z" fill="black"/>
</svg>
