<svg width="343" height="319" viewBox="0 0 343 319" fill="none" xmlns="http://www.w3.org/2000/svg">
<g clip-path="url(#clip0_14869_58696)">
<rect width="343" height="319" rx="8" fill="#00ADB5"/>
<rect width="343" height="343" transform="translate(0 -12)" fill="#00ADB5"/>
<mask id="mask0_14869_58696" style="mask-type:alpha" maskUnits="userSpaceOnUse" x="0" y="-12" width="360" height="417">
<rect y="-12" width="360" height="417" rx="14" fill="#1C1D23"/>
</mask>
<g mask="url(#mask0_14869_58696)">
<g filter="url(#filter0_f_14869_58696)">
<path d="M91.3773 28.6311L91.2952 28.7113C86.9182 32.9982 84.3905 37.6014 84.7637 41.494L88.1772 56.7841C90.9696 64.5154 90.7834 77.155 87.7659 84.8719L83.9146 100.144C82.9318 107.948 93.5532 118.675 107.513 123.978L136.209 133.798C151.474 138.452 173.078 147.442 184.212 153.777L207.74 165.699C220.468 171.501 246.415 175.999 265.402 175.69L302.574 174.288C321.371 173.137 352.102 173.215 370.863 174.455L408 176.04C426.974 176.445 453.055 172.077 465.946 166.337L489.824 154.534C501.142 148.255 523.001 139.371 538.401 134.792L567.379 125.117C574.349 122.53 580.542 118.614 584.933 114.373L585.244 114.071C589.553 109.815 592.039 105.258 591.668 101.398L588.255 86.1097C585.462 78.3784 585.646 65.7404 588.665 58.0219L592.52 42.7523C593.499 34.9458 582.879 24.2208 568.922 18.9166L540.224 9.09736C524.959 4.44167 503.358 -4.5483 492.228 -10.8844L468.695 -22.8022C455.969 -28.6072 430.02 -33.1033 411.032 -32.7929L373.857 -31.3908C355.057 -30.2427 324.327 -30.3201 305.567 -31.56L268.436 -33.1461C249.459 -33.5489 223.381 -29.1829 210.49 -23.4419L186.615 -11.6396C175.296 -5.35886 153.437 3.52365 138.036 8.10277L109.052 17.7798C102.018 20.3884 95.7766 24.3484 91.3773 28.6311Z" fill="#00ADB5"/>
</g>
<g filter="url(#filter1_f_14869_58696)">
<path d="M-138.845 52.2104L-138.919 52.269C-142.863 55.4113 -145.454 58.8393 -145.741 61.8005L-145.395 73.4798C-144.412 79.4117 -146.405 88.9917 -149.822 94.7688L-154.977 106.254C-156.865 112.148 -150.39 120.546 -140.591 124.913L-120.287 133.072C-109.404 136.979 -94.3538 144.333 -86.8455 149.412L-70.766 159.037C-61.9741 163.754 -42.9724 167.807 -28.5418 168.044L-0.173599 167.902C14.237 167.496 37.5093 168.318 51.5426 169.724L79.4446 171.849C93.7643 172.626 114.163 169.96 124.772 165.927L144.591 157.57C154.086 153.089 171.949 146.894 184.289 143.804L207.662 137.186C213.324 135.398 218.587 132.582 222.538 129.475L222.817 129.253C226.705 126.132 229.258 122.738 229.543 119.802L229.197 108.124C228.215 102.192 230.204 92.6134 233.623 86.8353L238.78 75.3519C240.668 69.4566 234.193 61.0604 224.394 56.6919L204.09 48.5341C193.207 44.6249 178.157 37.2709 170.652 32.1908L154.569 22.5683C145.778 17.8511 126.777 13.7975 112.345 13.5613L83.9734 13.7022C69.5629 14.1065 46.2905 13.2856 32.2573 11.8799L4.35936 9.7556C-9.9599 8.97932 -30.3584 11.6433 -40.9662 15.6771L-60.7851 24.0347C-70.2803 28.5167 -88.1432 34.7099 -100.483 37.8002L-123.861 44.4192C-129.575 46.2238 -134.884 49.0719 -138.845 52.2104Z" fill="#00ADB5"/>
</g>
<g filter="url(#filter2_f_14869_58696)">
<path fill-rule="evenodd" clip-rule="evenodd" d="M180.84 136.414L153.579 127.076C140.319 122.035 130.228 111.836 131.161 104.415L134.82 89.8947C137.687 82.5576 137.864 70.54 135.211 63.189L131.969 48.6508C131.612 44.9497 134.015 40.573 138.173 36.497L138.252 36.421C142.431 32.3488 148.36 28.5834 155.042 26.1031L158.529 24.9375L170.651 32.1907C178.156 37.2714 193.206 44.6251 204.089 48.5339L224.392 56.6918C234.192 61.0605 240.666 69.4567 238.779 75.3521L233.622 86.8355C230.203 92.6124 228.214 102.192 229.196 108.124L229.541 119.802C229.257 122.738 226.704 126.133 222.816 129.253L222.537 129.475C218.586 132.582 213.324 135.397 207.661 137.185L194.199 140.997C189.507 139.241 184.934 137.663 180.84 136.414Z" fill="#00ADB5"/>
</g>
</g>
<circle opacity="0.1" cx="172" cy="160" r="140" fill="white"/>
<circle opacity="0.15" cx="172" cy="160" r="87.5" fill="white"/>
<circle opacity="0.08" cx="172" cy="160" r="52.5" fill="white"/>
<g opacity="0.8">
<path d="M171.995 108.953C143.871 108.953 120.953 131.871 120.953 159.995C120.953 188.119 143.871 211.036 171.995 211.036C200.119 211.036 223.036 188.119 223.036 159.995C223.036 131.871 200.119 108.953 171.995 108.953ZM196.393 148.255L167.452 177.196C166.737 177.91 165.768 178.319 164.747 178.319C163.726 178.319 162.756 177.91 162.042 177.196L147.597 162.751C146.117 161.271 146.117 158.821 147.597 157.341C149.077 155.86 151.527 155.86 153.007 157.341L164.747 169.08L190.982 142.845C192.463 141.365 194.913 141.365 196.393 142.845C197.873 144.325 197.873 146.724 196.393 148.255Z" fill="white"/>
</g>
<circle opacity="0.2" cx="78.375" cy="172.25" r="6.125" fill="white"/>
<circle opacity="0.1" cx="45.125" cy="118" r="3.5" fill="white"/>
<circle opacity="0.2" cx="264.312" cy="201.562" r="3.9375" fill="white"/>
<circle opacity="0.1" cx="266.938" cy="105.312" r="6.5625" fill="white"/>
<circle opacity="0.2" cx="110.312" cy="59.8125" r="3.9375" fill="white"/>
<circle opacity="0.1" cx="215.75" cy="75.125" r="3.5" fill="white"/>
<path opacity="0.2" d="M91.5 234.375V220.375L105.938 226.5L91.5 234.375Z" fill="white"/>
<path opacity="0.3" d="M160.188 257.125L164.562 247.938L168.5 257.125H160.188Z" fill="white"/>
<path opacity="0.3" d="M238.938 251.875L234.125 243.562H248.125L238.938 251.875Z" fill="white"/>
<path opacity="0.2" d="M242 174L233.25 160.438L255.125 156.5L242 174Z" fill="white"/>
<path opacity="0.1" d="M150.125 65.9375L157.125 53.6875L171.562 69.4375L150.125 65.9375Z" fill="white"/>
<path opacity="0.3" d="M98.5 103.562L82.75 97.875V92.1875L98.5 97.875V103.562Z" fill="white"/>
<path opacity="0.1" d="M275.25 142.5L279.986 137.25L302.375 149.938L298.069 156.5L275.25 142.5Z" fill="white"/>
<path opacity="0.1" d="M123.438 167.875L117.75 163.062L138.312 151.688L144 156.062L123.438 167.875Z" fill="white"/>
<rect opacity="0.3" x="242.672" y="62.6484" width="3.5" height="22.75" transform="rotate(-30 242.672 62.6484)" fill="white"/>
</g>
<defs>
<filter id="filter0_f_14869_58696" x="-36.1484" y="-153.172" width="748.73" height="449.238" filterUnits="userSpaceOnUse" color-interpolation-filters="sRGB">
<feFlood flood-opacity="0" result="BackgroundImageFix"/>
<feBlend mode="normal" in="SourceGraphic" in2="BackgroundImageFix" result="shape"/>
<feGaussianBlur stdDeviation="60" result="effect1_foregroundBlur_14869_58696"/>
</filter>
<filter id="filter1_f_14869_58696" x="-275.305" y="-110.379" width="634.41" height="402.363" filterUnits="userSpaceOnUse" color-interpolation-filters="sRGB">
<feFlood flood-opacity="0" result="BackgroundImageFix"/>
<feBlend mode="normal" in="SourceGraphic" in2="BackgroundImageFix" result="shape"/>
<feGaussianBlur stdDeviation="60" result="effect1_foregroundBlur_14869_58696"/>
</filter>
<filter id="filter2_f_14869_58696" x="11.1016" y="-95.0625" width="348.004" height="356.059" filterUnits="userSpaceOnUse" color-interpolation-filters="sRGB">
<feFlood flood-opacity="0" result="BackgroundImageFix"/>
<feBlend mode="normal" in="SourceGraphic" in2="BackgroundImageFix" result="shape"/>
<feGaussianBlur stdDeviation="60" result="effect1_foregroundBlur_14869_58696"/>
</filter>
<clipPath id="clip0_14869_58696">
<rect width="343" height="319" rx="8" fill="white"/>
</clipPath>
</defs>
</svg>
