<svg width="327" height="45" viewBox="0 0 327 45" fill="none" xmlns="http://www.w3.org/2000/svg">
<g clip-path="url(#clip0_1_2266)">
<rect width="327" height="45" rx="7" fill="#023B60"/>
<rect width="327" height="45" rx="7" fill="#023B60"/>
<path d="M42.1579 12.4433C42.1559 12.3833 42.1387 12.3249 42.1078 12.2734C42.077 12.222 42.0335 12.1793 41.9815 12.1493C38.5661 10.3121 34.8441 9.11354 30.9985 8.6124C30.702 8.55156 30.3996 8.52526 30.0971 8.53402C29.9676 8.50962 29.8347 8.50962 29.7052 8.53402C25.6605 9.00497 21.7394 10.2278 18.144 12.1395C15.5183 21.4962 20.5934 32.3813 29.6072 36.32C29.6881 36.3696 29.778 36.4029 29.8717 36.4179C29.8859 36.4357 29.9038 36.4501 29.9241 36.4603C29.9444 36.4704 29.9666 36.476 29.9893 36.4767H30.0971C30.1323 36.4868 30.1696 36.4868 30.2048 36.4767C39.4244 32.6263 44.2252 22.0939 42.1579 12.4433ZM24.8946 22.2408V26.6595C24.8736 26.8411 24.7867 27.0086 24.6503 27.1301C24.5139 27.2517 24.3376 27.3189 24.1548 27.3189C23.9721 27.3189 23.7958 27.2517 23.6594 27.1301C23.523 27.0086 23.436 26.8411 23.4151 26.6595V22.2408C23.4031 22.1365 23.4133 22.0309 23.445 21.9308C23.4766 21.8307 23.5291 21.7385 23.599 21.6601C23.6688 21.5817 23.7545 21.519 23.8503 21.4761C23.9461 21.4331 24.0499 21.4109 24.1548 21.4109C24.2598 21.4109 24.3636 21.4331 24.4594 21.4761C24.5552 21.519 24.6408 21.5817 24.7107 21.6601C24.7805 21.7385 24.833 21.8307 24.8647 21.9308C24.8964 22.0309 24.9066 22.1365 24.8946 22.2408ZM24.1303 19.9972C23.9463 19.9877 23.7723 19.9104 23.642 19.7801C23.5117 19.6498 23.4344 19.4758 23.4249 19.2918C23.4375 18.2837 23.6773 17.2916 24.1265 16.3891C24.5757 15.4866 25.2227 14.6971 26.0194 14.0794C26.8161 13.4616 27.7418 13.0316 28.7277 12.8212C29.7136 12.6109 30.7343 12.6257 31.7137 12.8646C31.8076 12.8884 31.8959 12.9304 31.9736 12.9884C32.0513 13.0463 32.1167 13.119 32.1663 13.2022C32.2159 13.2854 32.2486 13.3776 32.2626 13.4735C32.2765 13.5694 32.2714 13.6671 32.2476 13.761C32.2238 13.855 32.1818 13.9433 32.1238 14.0209C32.0659 14.0986 31.9932 14.1641 31.91 14.2137C31.8267 14.2633 31.7345 14.296 31.6387 14.3099C31.5428 14.3239 31.4451 14.3188 31.3512 14.295C30.5889 14.1076 29.7942 14.0947 29.0263 14.2574C28.2584 14.42 27.5371 14.754 26.9164 15.2344C26.2956 15.7148 25.7914 16.3292 25.4413 17.0318C25.0912 17.7343 24.9043 18.5069 24.8946 19.2918C24.8771 19.4789 24.7877 19.6519 24.6451 19.7744C24.5025 19.8969 24.318 19.9592 24.1303 19.9482V19.9972ZM31.7431 32.0384C31.1884 32.3223 30.5711 32.4617 29.9483 32.4437C29.3255 32.4257 28.7173 32.2508 28.1801 31.9353C27.6428 31.6197 27.1938 31.1738 26.8747 30.6386C26.5556 30.1035 26.3766 29.4965 26.3544 28.8738C26.3544 28.8738 26.3544 28.7856 26.3544 28.7464V20.7908C26.3424 20.6865 26.3525 20.5809 26.3842 20.4808C26.4159 20.3807 26.4684 20.2884 26.5383 20.2101C26.6081 20.1317 26.6937 20.069 26.7895 20.026C26.8853 19.9831 26.9891 19.9609 27.0941 19.9609C27.1991 19.9609 27.3029 19.9831 27.3987 20.026C27.4945 20.069 27.5801 20.1317 27.65 20.2101C27.7198 20.2884 27.7723 20.3807 27.804 20.4808C27.8357 20.5809 27.8459 20.6865 27.8338 20.7908V28.7464C27.8338 29.3303 28.0644 29.8906 28.4754 30.3053C28.8865 30.72 29.4446 30.9555 30.0285 30.9607C30.3872 30.9532 30.7394 30.8626 31.0572 30.6962C31.2352 30.6052 31.4421 30.5887 31.6322 30.6502C31.8224 30.7118 31.9803 30.8464 32.0713 31.0244C32.1622 31.2024 32.1787 31.4092 32.1172 31.5994C32.0556 31.7895 31.9211 31.9475 31.7431 32.0384ZM30.0481 24.4453C30.1377 24.4373 30.228 24.4472 30.3137 24.4745C30.3994 24.5018 30.4788 24.546 30.5473 24.6044C30.6157 24.6628 30.6718 24.7342 30.7123 24.8146C30.7527 24.895 30.7767 24.9826 30.7829 25.0723V28.8052C30.7679 28.9855 30.6823 29.1526 30.5446 29.2701C30.407 29.3875 30.2285 29.4458 30.0481 29.4323C29.9585 29.4403 29.8682 29.4304 29.7824 29.4031C29.6967 29.3757 29.6173 29.3316 29.5489 29.2732C29.4805 29.2148 29.4244 29.1433 29.3839 29.063C29.3434 28.9826 29.3194 28.895 29.3133 28.8052V25.0234C29.3207 24.9345 29.3456 24.8479 29.3866 24.7687C29.4276 24.6894 29.4838 24.6191 29.5522 24.5617C29.6205 24.5044 29.6995 24.4611 29.7846 24.4344C29.8697 24.4076 29.9592 24.398 30.0481 24.4061V24.4453ZM29.3133 22.2408V19.3016C29.3133 19.1067 29.3907 18.9198 29.5285 18.782C29.6663 18.6442 29.8532 18.5667 30.0481 18.5667C30.243 18.5667 30.4299 18.6442 30.5677 18.782C30.7055 18.9198 30.7829 19.1067 30.7829 19.3016V22.2408C30.7843 22.3373 30.7661 22.433 30.7295 22.5222C30.693 22.6114 30.6387 22.6923 30.5701 22.76C30.5014 22.8278 30.4198 22.8809 30.3301 22.9163C30.2404 22.9516 30.1445 22.9685 30.0481 22.9659C29.8549 22.9659 29.6695 22.8898 29.5319 22.7541C29.3944 22.6184 29.3158 22.434 29.3133 22.2408ZM33.732 29.0012C33.732 29.1961 33.6546 29.383 33.5168 29.5208C33.3789 29.6586 33.192 29.736 32.9972 29.736C32.8023 29.736 32.6154 29.6586 32.4776 29.5208C32.3398 29.383 32.2623 29.1961 32.2623 29.0012V22.3388C32.2449 22.2323 32.2508 22.1232 32.2797 22.0192C32.3086 21.9151 32.3598 21.8186 32.4297 21.7363C32.4996 21.6541 32.5865 21.5879 32.6845 21.5426C32.7825 21.4973 32.8892 21.4738 32.9972 21.4738C33.1051 21.4738 33.2118 21.4973 33.3098 21.5426C33.4078 21.5879 33.4948 21.6541 33.5647 21.7363C33.6346 21.8186 33.6857 21.9151 33.7146 22.0192C33.7435 22.1232 33.7494 22.2323 33.732 22.3388V29.0012ZM33.007 20.0266C32.9101 20.0279 32.814 20.0098 32.7242 19.9733C32.6345 19.9369 32.5529 19.8828 32.4844 19.8143C32.4159 19.7458 32.3618 19.6643 32.3254 19.5745C32.2889 19.4848 32.2708 19.3886 32.2721 19.2918C32.2722 19.0006 32.2145 18.7123 32.1025 18.4436C31.9905 18.1749 31.8263 17.931 31.6196 17.726C31.4128 17.521 31.1674 17.3591 30.8977 17.2495C30.628 17.1398 30.3392 17.0847 30.0481 17.0873C29.6523 17.0799 29.2618 17.1786 28.9172 17.3733C28.5725 17.5681 28.2864 17.8516 28.0886 18.1944C27.9898 18.3633 27.828 18.4861 27.6388 18.5357C27.4495 18.5853 27.2483 18.5577 27.0794 18.459C26.9105 18.3602 26.7878 18.1984 26.7382 18.0092C26.6885 17.8199 26.7161 17.6187 26.8149 17.4498C27.2327 16.7694 27.8592 16.2421 28.6011 15.9468C29.3429 15.6514 30.1604 15.6038 30.9316 15.8109C31.7027 16.018 32.3863 16.4688 32.8804 17.0961C33.3744 17.7234 33.6525 18.4935 33.6732 19.2918C33.6642 19.4675 33.5917 19.6339 33.4692 19.7601C33.3466 19.8863 33.1823 19.9636 33.007 19.9776V20.0266ZM36.6713 26.6595C36.6713 26.8544 36.5938 27.0413 36.456 27.1791C36.3182 27.317 36.1313 27.3944 35.9364 27.3944C35.7416 27.3944 35.5546 27.317 35.4168 27.1791C35.279 27.0413 35.2016 26.8544 35.2016 26.6595V19.0762C35.1678 17.8781 34.7134 16.73 33.9181 15.8332C33.7882 15.6877 33.7214 15.4965 33.7324 15.3018C33.7435 15.107 33.8314 14.9246 33.9769 14.7947C34.1224 14.6648 34.3136 14.598 34.5084 14.609C34.7031 14.62 34.8855 14.7079 35.0155 14.8535C36.0458 16.0193 36.6321 17.5111 36.6713 19.0664V26.6595Z" fill="white"/>
<path d="M62.4953 17.0661L57.6317 29H56.1827L51.3191 17.0661H52.61C52.7543 17.0661 52.8709 17.1021 52.9598 17.1743C53.0486 17.2465 53.1152 17.3381 53.1596 17.4491L56.5241 25.8687C56.5963 26.0575 56.6657 26.2629 56.7323 26.485C56.8045 26.707 56.8683 26.9402 56.9239 27.1845C56.9794 26.9402 57.0377 26.707 57.0987 26.485C57.1598 26.2629 57.2264 26.0575 57.2986 25.8687L60.6548 17.4491C60.6881 17.3548 60.7519 17.2687 60.8463 17.191C60.9463 17.1077 61.0656 17.0661 61.2044 17.0661H62.4953ZM68.1093 23.8617C68.1093 23.5174 68.0594 23.2037 67.9594 22.9206C67.865 22.6319 67.7235 22.3848 67.5347 22.1794C67.3515 21.9684 67.1266 21.8074 66.8601 21.6964C66.5936 21.5798 66.2911 21.5215 65.9524 21.5215C65.2417 21.5215 64.6782 21.7297 64.2618 22.1461C63.851 22.5569 63.5956 23.1288 63.4956 23.8617H68.1093ZM69.3086 27.8174C69.1253 28.0395 68.906 28.2338 68.6506 28.4004C68.3953 28.5614 68.1204 28.6946 67.8262 28.8001C67.5375 28.9056 67.2377 28.9833 66.9268 29.0333C66.6159 29.0888 66.3077 29.1166 66.0024 29.1166C65.4194 29.1166 64.8809 29.0194 64.3867 28.8251C63.8982 28.6252 63.4734 28.3365 63.1126 27.959C62.7572 27.5759 62.4796 27.104 62.2798 26.5433C62.0799 25.9825 61.98 25.3385 61.98 24.6112C61.98 24.0227 62.0688 23.473 62.2465 22.9622C62.4297 22.4515 62.6906 22.0101 63.0293 21.6381C63.368 21.2606 63.7816 20.9663 64.2701 20.7553C64.7587 20.5388 65.3084 20.4305 65.9191 20.4305C66.4243 20.4305 66.8907 20.5166 67.3182 20.6887C67.7512 20.8553 68.1232 21.0996 68.4341 21.4216C68.7506 21.738 68.9976 22.1322 69.1753 22.6041C69.353 23.0705 69.4418 23.6035 69.4418 24.2031C69.4418 24.4363 69.4168 24.5917 69.3668 24.6695C69.3169 24.7472 69.2225 24.7861 69.0837 24.7861H63.4457C63.4623 25.319 63.5345 25.7826 63.6622 26.1768C63.7955 26.571 63.9787 26.9014 64.2119 27.1679C64.445 27.4288 64.7226 27.6259 65.0446 27.7591C65.3667 27.8868 65.7275 27.9507 66.1273 27.9507C66.4993 27.9507 66.8185 27.909 67.085 27.8258C67.357 27.7369 67.5902 27.6425 67.7845 27.5426C67.9789 27.4427 68.1399 27.3511 68.2676 27.2678C68.4008 27.179 68.5146 27.1345 68.609 27.1345C68.7311 27.1345 68.8255 27.1817 68.8922 27.2761L69.3086 27.8174ZM72.6701 22.2544C72.9365 21.677 73.2641 21.2272 73.6527 20.9052C74.0414 20.5777 74.5161 20.4139 75.0768 20.4139C75.2545 20.4139 75.4238 20.4333 75.5848 20.4722C75.7514 20.511 75.8985 20.5721 76.0262 20.6554L75.9179 21.763C75.8846 21.9018 75.8014 21.9712 75.6681 21.9712C75.5904 21.9712 75.4766 21.9546 75.3267 21.9212C75.1768 21.8879 75.0074 21.8713 74.8187 21.8713C74.5522 21.8713 74.3134 21.9101 74.1025 21.9879C73.897 22.0656 73.711 22.1822 73.5445 22.3376C73.3835 22.4875 73.2364 22.6763 73.1031 22.9039C72.9754 23.126 72.8588 23.3814 72.7533 23.6701V29H71.2626V20.5638H72.1121C72.2731 20.5638 72.3841 20.5943 72.4452 20.6554C72.5063 20.7165 72.5479 20.822 72.5701 20.9719L72.6701 22.2544ZM78.8953 20.5638V29H77.4129V20.5638H78.8953ZM79.2118 17.9155C79.2118 18.0599 79.1812 18.1959 79.1202 18.3236C79.0647 18.4457 78.9869 18.5568 78.887 18.6567C78.7926 18.7511 78.6788 18.826 78.5455 18.8815C78.4179 18.9371 78.2818 18.9648 78.1375 18.9648C77.9931 18.9648 77.8571 18.9371 77.7294 18.8815C77.6073 18.826 77.499 18.7511 77.4046 18.6567C77.3102 18.5568 77.2353 18.4457 77.1798 18.3236C77.1242 18.1959 77.0965 18.0599 77.0965 17.9155C77.0965 17.7712 77.1242 17.6351 77.1798 17.5074C77.2353 17.3742 77.3102 17.2604 77.4046 17.166C77.499 17.0661 77.6073 16.9883 77.7294 16.9328C77.8571 16.8773 77.9931 16.8495 78.1375 16.8495C78.2818 16.8495 78.4179 16.8773 78.5455 16.9328C78.6788 16.9883 78.7926 17.0661 78.887 17.166C78.9869 17.2604 79.0647 17.3742 79.1202 17.5074C79.1812 17.6351 79.2118 17.7712 79.2118 17.9155ZM81.8806 29V21.8296L80.9479 21.7214C80.8313 21.6936 80.7342 21.652 80.6564 21.5965C80.5842 21.5354 80.5482 21.4493 80.5482 21.3383V20.7303H81.8806V19.9142C81.8806 19.4312 81.9473 19.0037 82.0805 18.6317C82.2193 18.2542 82.4136 17.9377 82.6635 17.6823C82.9188 17.4214 83.2242 17.2243 83.5795 17.091C83.9349 16.9578 84.3346 16.8912 84.7788 16.8912C85.1563 16.8912 85.5033 16.9467 85.8197 17.0577L85.7864 17.7989C85.7753 17.9322 85.7004 18.0043 85.5616 18.0154C85.4283 18.0265 85.2479 18.0321 85.0203 18.0321C84.7649 18.0321 84.5317 18.0654 84.3207 18.132C84.1153 18.1987 83.9376 18.3069 83.7877 18.4568C83.6378 18.6067 83.5212 18.8038 83.438 19.0481C83.3602 19.2924 83.3214 19.595 83.3214 19.9558V20.7303H85.7531V21.8047H83.3713V29H81.8806ZM94.4489 20.5638L89.7436 31.4901C89.6937 31.6011 89.6298 31.6899 89.5521 31.7566C89.4799 31.8232 89.3661 31.8565 89.2107 31.8565H88.1114L89.652 28.5087L86.171 20.5638H87.4535C87.5812 20.5638 87.6811 20.5971 87.7533 20.6637C87.831 20.7248 87.8837 20.7942 87.9115 20.8719L90.1684 26.1852C90.2572 26.4183 90.3322 26.6626 90.3932 26.918C90.471 26.6571 90.5542 26.41 90.6431 26.1768L92.8333 20.8719C92.8666 20.7831 92.9221 20.7109 92.9999 20.6554C93.0832 20.5943 93.1748 20.5638 93.2747 20.5638H94.4489ZM104.185 25.2025C103.503 25.2247 102.92 25.2802 102.437 25.369C101.959 25.4523 101.568 25.5633 101.262 25.7021C100.963 25.8409 100.743 26.0047 100.604 26.1935C100.471 26.3822 100.405 26.5932 100.405 26.8264C100.405 27.0485 100.441 27.24 100.513 27.401C100.585 27.562 100.682 27.6953 100.804 27.8008C100.932 27.9007 101.079 27.9757 101.246 28.0256C101.418 28.07 101.601 28.0923 101.795 28.0923C102.056 28.0923 102.295 28.0673 102.512 28.0173C102.728 27.9618 102.931 27.8841 103.119 27.7841C103.314 27.6842 103.497 27.5648 103.669 27.426C103.847 27.2872 104.019 27.129 104.185 26.9513V25.2025ZM99.3969 21.7547C99.8633 21.305 100.366 20.9691 100.904 20.747C101.443 20.5249 102.04 20.4139 102.695 20.4139C103.167 20.4139 103.586 20.4916 103.952 20.6471C104.319 20.8025 104.627 21.0191 104.877 21.2966C105.127 21.5742 105.315 21.9101 105.443 22.3043C105.571 22.6985 105.635 23.1316 105.635 23.6035V29H104.977C104.832 29 104.721 28.9778 104.644 28.9334C104.566 28.8834 104.505 28.789 104.46 28.6502L104.294 27.8507C104.072 28.0562 103.855 28.2394 103.644 28.4004C103.433 28.5558 103.211 28.6891 102.978 28.8001C102.745 28.9056 102.495 28.9861 102.228 29.0416C101.967 29.1027 101.676 29.1332 101.354 29.1332C101.026 29.1332 100.718 29.0888 100.43 29C100.141 28.9056 99.8883 28.7668 99.6717 28.5836C99.4608 28.4004 99.2914 28.17 99.1637 27.8924C99.0416 27.6092 98.9805 27.2761 98.9805 26.893C98.9805 26.5599 99.0721 26.2407 99.2553 25.9353C99.4385 25.6244 99.7356 25.3496 100.146 25.1108C100.557 24.8721 101.093 24.6778 101.754 24.5279C102.414 24.3724 103.225 24.2836 104.185 24.2614V23.6035C104.185 22.9484 104.044 22.4542 103.761 22.1211C103.478 21.7824 103.064 21.6131 102.52 21.6131C102.153 21.6131 101.845 21.6603 101.595 21.7547C101.351 21.8435 101.137 21.9462 100.954 22.0628C100.777 22.1739 100.621 22.2766 100.488 22.371C100.36 22.4598 100.232 22.5042 100.105 22.5042C100.005 22.5042 99.9188 22.4792 99.8466 22.4292C99.7744 22.3737 99.7134 22.3071 99.6634 22.2294L99.3969 21.7547ZM109.292 21.788C109.475 21.5826 109.669 21.3966 109.875 21.23C110.08 21.0635 110.297 20.9219 110.524 20.8053C110.757 20.6832 111.002 20.5915 111.257 20.5305C111.518 20.4639 111.798 20.4305 112.098 20.4305C112.559 20.4305 112.964 20.5083 113.314 20.6637C113.669 20.8136 113.964 21.0302 114.197 21.3133C114.436 21.5909 114.616 21.9268 114.738 22.321C114.86 22.7152 114.921 23.151 114.921 23.6285V29H113.431V23.6285C113.431 22.99 113.284 22.4959 112.989 22.1461C112.701 21.7908 112.259 21.6131 111.665 21.6131C111.227 21.6131 110.816 21.7186 110.433 21.9296C110.055 22.1405 109.705 22.4265 109.383 22.7874V29H107.893V20.5638H108.784C108.995 20.5638 109.125 20.6665 109.175 20.8719L109.292 21.788ZM120.736 20.4305C121.352 20.4305 121.908 20.5333 122.402 20.7387C122.896 20.9441 123.318 21.2356 123.668 21.6131C124.017 21.9906 124.284 22.4487 124.467 22.9872C124.656 23.5202 124.75 24.117 124.75 24.7777C124.75 25.444 124.656 26.0436 124.467 26.5766C124.284 27.1096 124.017 27.5648 123.668 27.9424C123.318 28.3199 122.896 28.6114 122.402 28.8168C121.908 29.0167 121.352 29.1166 120.736 29.1166C120.114 29.1166 119.554 29.0167 119.054 28.8168C118.56 28.6114 118.138 28.3199 117.788 27.9424C117.438 27.5648 117.169 27.1096 116.98 26.5766C116.797 26.0436 116.705 25.444 116.705 24.7777C116.705 24.117 116.797 23.5202 116.98 22.9872C117.169 22.4487 117.438 21.9906 117.788 21.6131C118.138 21.2356 118.56 20.9441 119.054 20.7387C119.554 20.5333 120.114 20.4305 120.736 20.4305ZM120.736 27.959C121.569 27.959 122.191 27.6814 122.602 27.1262C123.013 26.5655 123.218 25.7854 123.218 24.7861C123.218 23.7812 123.013 22.9983 122.602 22.4376C122.191 21.8768 121.569 21.5965 120.736 21.5965C120.314 21.5965 119.945 21.6686 119.629 21.813C119.318 21.9573 119.057 22.1655 118.846 22.4376C118.64 22.7096 118.485 23.0455 118.379 23.4453C118.279 23.8394 118.23 24.2864 118.23 24.7861C118.23 25.7854 118.435 26.5655 118.846 27.1262C119.262 27.6814 119.892 27.959 120.736 27.959ZM128.03 21.788C128.213 21.5826 128.407 21.3966 128.613 21.23C128.818 21.0635 129.034 20.9219 129.262 20.8053C129.495 20.6832 129.74 20.5915 129.995 20.5305C130.256 20.4639 130.536 20.4305 130.836 20.4305C131.297 20.4305 131.702 20.5083 132.052 20.6637C132.407 20.8136 132.702 21.0302 132.935 21.3133C133.173 21.5909 133.354 21.9268 133.476 22.321C133.598 22.7152 133.659 23.151 133.659 23.6285V29H132.169V23.6285C132.169 22.99 132.021 22.4959 131.727 22.1461C131.438 21.7908 130.997 21.6131 130.403 21.6131C129.964 21.6131 129.554 21.7186 129.17 21.9296C128.793 22.1405 128.443 22.4265 128.121 22.7874V29H126.63V20.5638H127.522C127.733 20.5638 127.863 20.6665 127.913 20.8719L128.03 21.788ZM142.985 20.5638L138.28 31.4901C138.23 31.6011 138.166 31.6899 138.088 31.7566C138.016 31.8232 137.902 31.8565 137.747 31.8565H136.648L138.188 28.5087L134.707 20.5638H135.99C136.117 20.5638 136.217 20.5971 136.29 20.6637C136.367 20.7248 136.42 20.7942 136.448 20.8719L138.705 26.1852C138.794 26.4183 138.868 26.6626 138.93 26.918C139.007 26.6571 139.091 26.41 139.179 26.1768L141.37 20.8719C141.403 20.7831 141.458 20.7109 141.536 20.6554C141.619 20.5943 141.711 20.5638 141.811 20.5638H142.985ZM144.295 29V20.5638H145.186C145.397 20.5638 145.527 20.6665 145.577 20.8719L145.686 21.738C145.996 21.3549 146.346 21.0413 146.735 20.797C147.124 20.5527 147.573 20.4305 148.084 20.4305C148.65 20.4305 149.108 20.5888 149.458 20.9052C149.813 21.2217 150.069 21.6492 150.224 22.1877C150.346 21.8824 150.502 21.6187 150.691 21.3966C150.885 21.1745 151.102 20.9913 151.34 20.8469C151.579 20.7026 151.832 20.5971 152.098 20.5305C152.37 20.4639 152.645 20.4305 152.923 20.4305C153.367 20.4305 153.761 20.5027 154.105 20.6471C154.455 20.7859 154.749 20.9913 154.988 21.2633C155.232 21.5354 155.418 21.8713 155.546 22.271C155.674 22.6652 155.737 23.1177 155.737 23.6285V29H154.247V23.6285C154.247 22.9678 154.102 22.4681 153.814 22.1294C153.525 21.7852 153.109 21.6131 152.564 21.6131C152.32 21.6131 152.087 21.6575 151.865 21.7464C151.648 21.8296 151.457 21.9546 151.29 22.1211C151.124 22.2877 150.99 22.4986 150.891 22.754C150.796 23.0039 150.749 23.2954 150.749 23.6285V29H149.258V23.6285C149.258 22.9511 149.122 22.4459 148.85 22.1128C148.578 21.7797 148.181 21.6131 147.659 21.6131C147.293 21.6131 146.954 21.713 146.643 21.9129C146.332 22.1072 146.046 22.3737 145.786 22.7124V29H144.295ZM161.546 20.4305C162.163 20.4305 162.718 20.5333 163.212 20.7387C163.706 20.9441 164.128 21.2356 164.478 21.6131C164.828 21.9906 165.094 22.4487 165.277 22.9872C165.466 23.5202 165.56 24.117 165.56 24.7777C165.56 25.444 165.466 26.0436 165.277 26.5766C165.094 27.1096 164.828 27.5648 164.478 27.9424C164.128 28.3199 163.706 28.6114 163.212 28.8168C162.718 29.0167 162.163 29.1166 161.546 29.1166C160.925 29.1166 160.364 29.0167 159.864 28.8168C159.37 28.6114 158.948 28.3199 158.598 27.9424C158.249 27.5648 157.979 27.1096 157.791 26.5766C157.607 26.0436 157.516 25.444 157.516 24.7777C157.516 24.117 157.607 23.5202 157.791 22.9872C157.979 22.4487 158.249 21.9906 158.598 21.6131C158.948 21.2356 159.37 20.9441 159.864 20.7387C160.364 20.5333 160.925 20.4305 161.546 20.4305ZM161.546 27.959C162.379 27.959 163.001 27.6814 163.412 27.1262C163.823 26.5655 164.028 25.7854 164.028 24.7861C164.028 23.7812 163.823 22.9983 163.412 22.4376C163.001 21.8768 162.379 21.5965 161.546 21.5965C161.124 21.5965 160.755 21.6686 160.439 21.813C160.128 21.9573 159.867 22.1655 159.656 22.4376C159.451 22.7096 159.295 23.0455 159.19 23.4453C159.09 23.8394 159.04 24.2864 159.04 24.7861C159.04 25.7854 159.245 26.5655 159.656 27.1262C160.072 27.6814 160.703 27.959 161.546 27.959ZM174.378 20.5638V29H173.495C173.284 29 173.151 28.8973 173.095 28.6919L172.979 27.7841C172.612 28.1894 172.201 28.517 171.746 28.7668C171.291 29.0111 170.769 29.1332 170.181 29.1332C169.72 29.1332 169.312 29.0583 168.956 28.9084C168.607 28.7529 168.312 28.5364 168.074 28.2588C167.835 27.9812 167.654 27.6453 167.532 27.2511C167.416 26.8569 167.357 26.4211 167.357 25.9436V20.5638H168.84V25.9436C168.84 26.5821 168.984 27.0762 169.273 27.426C169.567 27.7758 170.014 27.9507 170.614 27.9507C171.052 27.9507 171.46 27.848 171.838 27.6425C172.221 27.4316 172.573 27.1429 172.895 26.7764V20.5638H174.378ZM181.642 21.9546C181.575 22.0767 181.472 22.1378 181.334 22.1378C181.25 22.1378 181.156 22.1072 181.05 22.0462C180.945 21.9851 180.815 21.9185 180.659 21.8463C180.509 21.7686 180.329 21.6992 180.118 21.6381C179.907 21.5715 179.657 21.5382 179.368 21.5382C179.118 21.5382 178.894 21.5715 178.694 21.6381C178.494 21.6992 178.322 21.7852 178.177 21.8963C178.039 22.0073 177.93 22.1378 177.853 22.2877C177.78 22.432 177.744 22.5903 177.744 22.7624C177.744 22.9789 177.805 23.1593 177.927 23.3037C178.055 23.448 178.222 23.573 178.427 23.6784C178.633 23.7839 178.866 23.8783 179.127 23.9616C179.388 24.0393 179.654 24.1254 179.926 24.2198C180.204 24.3086 180.473 24.4085 180.734 24.5196C180.995 24.6306 181.228 24.7694 181.434 24.936C181.639 25.1025 181.803 25.3079 181.925 25.5522C182.053 25.791 182.116 26.0797 182.116 26.4183C182.116 26.807 182.047 27.1679 181.908 27.501C181.769 27.8285 181.564 28.1145 181.292 28.3587C181.02 28.5975 180.687 28.7862 180.293 28.925C179.898 29.0638 179.443 29.1332 178.927 29.1332C178.338 29.1332 177.805 29.0389 177.328 28.8501C176.85 28.6558 176.445 28.4087 176.112 28.1089L176.462 27.5426C176.506 27.4704 176.559 27.4149 176.62 27.3761C176.681 27.3372 176.759 27.3178 176.853 27.3178C176.953 27.3178 177.059 27.3566 177.17 27.4343C177.281 27.5121 177.414 27.5981 177.569 27.6925C177.73 27.7869 177.925 27.873 178.152 27.9507C178.38 28.0284 178.663 28.0673 179.002 28.0673C179.29 28.0673 179.543 28.0312 179.76 27.959C179.976 27.8813 180.157 27.7786 180.301 27.6509C180.445 27.5232 180.551 27.3761 180.617 27.2095C180.69 27.0429 180.726 26.8653 180.726 26.6765C180.726 26.4433 180.662 26.2518 180.534 26.1019C180.412 25.9464 180.248 25.8159 180.043 25.7105C179.837 25.5994 179.601 25.505 179.335 25.4273C179.074 25.344 178.805 25.258 178.527 25.1691C178.255 25.0803 177.986 24.9804 177.719 24.8693C177.458 24.7527 177.225 24.6084 177.02 24.4363C176.814 24.2642 176.648 24.0532 176.52 23.8034C176.398 23.548 176.337 23.2398 176.337 22.879C176.337 22.5569 176.403 22.2488 176.537 21.9546C176.67 21.6548 176.864 21.3938 177.12 21.1717C177.375 20.9441 177.689 20.7637 178.061 20.6304C178.433 20.4972 178.857 20.4305 179.335 20.4305C179.89 20.4305 180.387 20.5194 180.826 20.697C181.27 20.8691 181.653 21.1079 181.975 21.4132L181.642 21.9546ZM185.466 16.7329V29H183.984V16.7329H185.466ZM195.149 20.5638L190.443 31.4901C190.394 31.6011 190.33 31.6899 190.252 31.7566C190.18 31.8232 190.066 31.8565 189.91 31.8565H188.811L190.352 28.5087L186.871 20.5638H188.153C188.281 20.5638 188.381 20.5971 188.453 20.6637C188.531 20.7248 188.584 20.7942 188.611 20.8719L190.868 26.1852C190.957 26.4183 191.032 26.6626 191.093 26.918C191.171 26.6571 191.254 26.41 191.343 26.1768L193.533 20.8719C193.566 20.7831 193.622 20.7109 193.7 20.6554C193.783 20.5943 193.875 20.5638 193.975 20.5638H195.149ZM211.606 20.5638L208.874 29H207.7C207.556 29 207.456 28.9056 207.4 28.7168L205.535 22.9956C205.49 22.8679 205.454 22.7402 205.427 22.6125C205.399 22.4792 205.371 22.3487 205.343 22.2211C205.315 22.3487 205.288 22.4792 205.26 22.6125C205.232 22.7402 205.196 22.8706 205.152 23.0039L203.253 28.7168C203.203 28.9056 203.092 29 202.92 29H201.804L199.072 20.5638H200.238C200.355 20.5638 200.452 20.5943 200.53 20.6554C200.613 20.7165 200.668 20.7886 200.696 20.8719L202.312 26.3017C202.406 26.7015 202.481 27.079 202.537 27.4343C202.587 27.2511 202.637 27.0651 202.687 26.8764C202.742 26.6876 202.8 26.4961 202.861 26.3017L204.644 20.8386C204.671 20.7553 204.719 20.6859 204.785 20.6304C204.857 20.5749 204.943 20.5471 205.043 20.5471H205.693C205.804 20.5471 205.896 20.5749 205.968 20.6304C206.04 20.6859 206.09 20.7553 206.118 20.8386L207.858 26.3017C207.919 26.4961 207.975 26.6876 208.025 26.8764C208.075 27.0651 208.122 27.2511 208.166 27.4343C208.194 27.2511 208.227 27.0679 208.266 26.8847C208.311 26.6959 208.358 26.5016 208.408 26.3017L210.057 20.8719C210.085 20.7831 210.137 20.7109 210.215 20.6554C210.293 20.5943 210.384 20.5638 210.49 20.5638H211.606ZM214.615 20.5638V29H213.132V20.5638H214.615ZM214.931 17.9155C214.931 18.0599 214.901 18.1959 214.84 18.3236C214.784 18.4457 214.706 18.5568 214.606 18.6567C214.512 18.7511 214.398 18.826 214.265 18.8815C214.137 18.9371 214.001 18.9648 213.857 18.9648C213.713 18.9648 213.577 18.9371 213.449 18.8815C213.327 18.826 213.218 18.7511 213.124 18.6567C213.03 18.5568 212.955 18.4457 212.899 18.3236C212.844 18.1959 212.816 18.0599 212.816 17.9155C212.816 17.7712 212.844 17.6351 212.899 17.5074C212.955 17.3742 213.03 17.2604 213.124 17.166C213.218 17.0661 213.327 16.9883 213.449 16.9328C213.577 16.8773 213.713 16.8495 213.857 16.8495C214.001 16.8495 214.137 16.8773 214.265 16.9328C214.398 16.9883 214.512 17.0661 214.606 17.166C214.706 17.2604 214.784 17.3742 214.84 17.5074C214.901 17.6351 214.931 17.7712 214.931 17.9155ZM219.64 29.1332C218.974 29.1332 218.461 28.9473 218.1 28.5753C217.744 28.2033 217.567 27.6675 217.567 26.968V21.8047H216.551C216.462 21.8047 216.387 21.7797 216.326 21.7297C216.265 21.6742 216.234 21.5909 216.234 21.4799V20.8886L217.617 20.7137L217.958 18.107C217.975 18.0238 218.011 17.9571 218.067 17.9072C218.128 17.8517 218.205 17.8239 218.3 17.8239H219.049V20.7303H221.489V21.8047H219.049V26.868C219.049 27.2234 219.135 27.4871 219.307 27.6592C219.479 27.8313 219.702 27.9174 219.974 27.9174C220.129 27.9174 220.262 27.8979 220.373 27.8591C220.49 27.8147 220.59 27.7675 220.673 27.7175C220.756 27.6675 220.826 27.6231 220.881 27.5842C220.942 27.5398 220.995 27.5176 221.04 27.5176C221.117 27.5176 221.187 27.5648 221.248 27.6592L221.681 28.3671C221.425 28.6058 221.117 28.7946 220.756 28.9334C220.396 29.0666 220.024 29.1332 219.64 29.1332ZM224.511 21.6881C224.872 21.305 225.271 20.9996 225.71 20.772C226.148 20.5444 226.654 20.4305 227.226 20.4305C227.686 20.4305 228.092 20.5083 228.441 20.6637C228.797 20.8136 229.091 21.0302 229.324 21.3133C229.563 21.5909 229.743 21.9268 229.866 22.321C229.988 22.7152 230.049 23.151 230.049 23.6285V29H228.558V23.6285C228.558 22.99 228.411 22.4959 228.117 22.1461C227.828 21.7908 227.387 21.6131 226.792 21.6131C226.354 21.6131 225.943 21.7186 225.56 21.9296C225.182 22.1405 224.833 22.4265 224.511 22.7874V29H223.02V16.7329H224.511V21.6881Z" fill="white"/>
<path d="M242.385 20.947C241.724 20.6253 240.99 20.4659 240.25 20.4828C239.647 20.4691 239.05 20.5932 238.507 20.8451C237.964 21.097 237.49 21.4694 237.124 21.9321V17.3476C237.127 17.2832 237.116 17.2189 237.093 17.1587C237.069 17.0984 237.033 17.0434 236.987 16.9971C236.887 16.911 236.758 16.8637 236.624 16.8645C236.494 16.8651 236.368 16.9124 236.272 16.9971C236.224 17.0424 236.187 17.0972 236.163 17.1577C236.139 17.2182 236.13 17.283 236.135 17.3476V28.8183C236.132 28.8816 236.143 28.9448 236.166 29.0039C236.19 29.0631 236.225 29.117 236.271 29.1622C236.317 29.2075 236.372 29.2432 236.433 29.2671C236.494 29.291 236.559 29.3027 236.624 29.3013C236.691 29.3042 236.757 29.294 236.82 29.2712C236.882 29.2484 236.939 29.2135 236.987 29.1687C237.076 29.0724 237.125 28.9475 237.124 28.8183V23.9496C237.124 22.3867 238.76 21.3732 240.25 21.43C240.79 21.3998 241.329 21.5094 241.811 21.7475C242.293 21.9855 242.701 22.3435 242.993 22.7845C243.288 23.3166 243.434 23.9144 243.414 24.5179V28.7993C243.411 28.8626 243.422 28.9258 243.446 28.985C243.469 29.0442 243.505 29.098 243.551 29.1433C243.597 29.1886 243.652 29.2242 243.713 29.2482C243.773 29.2721 243.838 29.2837 243.904 29.2824C243.969 29.2824 244.034 29.2699 244.094 29.2455C244.154 29.2211 244.208 29.1853 244.254 29.1403C244.3 29.0954 244.335 29.042 244.359 28.9835C244.383 28.9249 244.395 28.8623 244.394 28.7993C244.247 26.4408 245.207 22.1499 242.385 20.947Z" fill="white"/>
<path d="M254.006 20.5883C253.875 20.5861 253.749 20.6337 253.654 20.7209C253.606 20.7668 253.568 20.8215 253.543 20.8817C253.518 20.9419 253.505 21.0064 253.507 21.0714V25.9306C253.507 28.1471 250.567 28.9901 248.755 28.1186C248.249 27.85 247.833 27.4466 247.557 26.9564C247.281 26.4661 247.156 25.9096 247.197 25.3528V21.0714C247.198 21.0084 247.187 20.9458 247.163 20.8873C247.138 20.8287 247.103 20.7754 247.057 20.7304C247.011 20.6854 246.957 20.6497 246.897 20.6253C246.837 20.6009 246.772 20.5883 246.707 20.5883C246.575 20.5883 246.447 20.6392 246.354 20.7298C246.26 20.8204 246.207 20.9433 246.207 21.0714V25.3623C246.185 26.1331 246.377 26.8956 246.766 27.5693C247.143 28.1612 247.677 28.6446 248.313 28.9694C248.949 29.2943 249.663 29.4486 250.381 29.4163C250.981 29.4249 251.574 29.3004 252.116 29.0524C252.658 28.8045 253.133 28.4397 253.507 27.986V28.829C253.507 28.892 253.52 28.9544 253.545 29.0125C253.57 29.0706 253.607 29.1232 253.654 29.1673C253.7 29.2114 253.755 29.2461 253.816 29.2694C253.876 29.2926 253.941 29.3039 254.006 29.3026C254.073 29.3055 254.139 29.2953 254.202 29.2725C254.264 29.2497 254.321 29.2148 254.369 29.17C254.413 29.1229 254.448 29.0676 254.469 29.0074C254.491 28.9472 254.5 28.8833 254.496 28.8196V21.0714C254.502 21.0074 254.493 20.9429 254.471 20.8824C254.449 20.8218 254.413 20.7667 254.366 20.7208C254.32 20.6749 254.263 20.6393 254.201 20.6164C254.139 20.5936 254.073 20.584 254.006 20.5883Z" fill="white"/>
<path d="M267.909 20.9563C267.382 20.6329 266.769 20.4681 266.145 20.4827C265.523 20.4686 264.91 20.6236 264.375 20.93C263.839 21.2365 263.404 21.6821 263.118 22.2161C262.87 21.739 262.501 21.3307 262.045 21.0297C261.589 20.7287 261.061 20.5449 260.511 20.4956C259.961 20.4463 259.407 20.5332 258.902 20.748C258.396 20.9629 257.956 21.2986 257.621 21.7236V21.07C257.626 21.0063 257.617 20.9424 257.595 20.8822C257.573 20.822 257.539 20.7666 257.494 20.7195C257.446 20.6748 257.389 20.6399 257.327 20.6171C257.264 20.5943 257.198 20.584 257.131 20.5869C257.001 20.5876 256.875 20.6348 256.779 20.7195C256.731 20.7654 256.694 20.8201 256.668 20.8803C256.643 20.9405 256.631 21.005 256.632 21.07V28.8182C256.629 28.8823 256.64 28.9463 256.664 29.0062C256.688 29.066 256.725 29.1203 256.772 29.1657C256.819 29.2111 256.875 29.2466 256.937 29.2699C256.999 29.2933 257.065 29.3039 257.131 29.3012C257.198 29.3041 257.264 29.2939 257.327 29.2711C257.389 29.2483 257.446 29.2134 257.494 29.1686C257.539 29.1215 257.573 29.0662 257.595 29.006C257.617 28.9458 257.626 28.8819 257.621 28.8182V23.9495C257.606 23.6164 257.663 23.2838 257.787 22.9728C257.911 22.6617 258.101 22.379 258.344 22.1423C258.587 21.9056 258.878 21.7201 259.199 21.5975C259.52 21.4749 259.863 21.4179 260.208 21.4299C263.686 21.4773 262.373 26.6491 262.618 28.8182C262.615 28.8823 262.626 28.9463 262.65 29.0062C262.675 29.066 262.711 29.1203 262.758 29.1657C262.805 29.2111 262.861 29.2466 262.923 29.2699C262.985 29.2933 263.051 29.3039 263.118 29.3012C263.248 29.3006 263.374 29.2534 263.47 29.1686C263.515 29.1215 263.549 29.0662 263.571 29.006C263.593 28.9458 263.602 28.8819 263.598 28.8182V24.2242C263.603 24.1865 263.603 24.1483 263.598 24.1105C263.559 23.7686 263.596 23.4225 263.706 23.0954C263.816 22.7683 263.998 22.4679 264.238 22.2141C264.478 21.9603 264.772 21.759 265.099 21.6238C265.426 21.4885 265.78 21.4225 266.135 21.4299C266.467 21.4236 266.797 21.4913 267.097 21.6276C267.398 21.7639 267.662 21.9653 267.87 22.2161C269.016 23.3054 268.389 27.3974 268.536 28.8466C268.536 28.9096 268.549 28.972 268.574 29.03C268.599 29.0881 268.636 29.1408 268.683 29.1849C268.729 29.229 268.784 29.2637 268.845 29.2869C268.906 29.3101 268.97 29.3215 269.036 29.3202C269.101 29.3229 269.166 29.3125 269.226 29.2897C269.287 29.2669 269.342 29.2321 269.388 29.1876C269.435 29.1413 269.471 29.0863 269.494 29.026C269.518 28.9658 269.528 28.9015 269.525 28.8371V24.2242C269.56 23.5923 269.43 22.9622 269.147 22.3914C268.865 21.8206 268.439 21.3272 267.909 20.9563Z" fill="white"/>
<path d="M277.99 21.0787C270.906 17.7351 267.84 28.9784 275.629 29.3952C276.348 29.4064 277.057 29.2379 277.689 28.906C278.321 28.5741 278.853 28.09 279.234 27.5008V28.789C279.235 28.9151 279.284 29.0366 279.371 29.13C279.443 29.1966 279.533 29.2414 279.631 29.2589C279.729 29.2764 279.83 29.2659 279.922 29.2286C280.013 29.1914 280.092 29.129 280.147 29.0492C280.203 28.9694 280.233 28.8757 280.234 28.7795V24.9528C280.247 24.173 280.046 23.4037 279.652 22.7232C279.258 22.0427 278.685 21.4753 277.99 21.0787ZM278.774 26.762C278.458 27.2948 277.999 27.7348 277.445 28.0351C276.891 28.3354 276.264 28.4846 275.629 28.4669C272.836 28.5806 271.112 25.3506 272.494 23.0963C272.814 22.5656 273.272 22.1253 273.823 21.8193C274.374 21.5132 274.998 21.3522 275.634 21.3522C276.269 21.3522 276.893 21.5132 277.444 21.8193C277.995 22.1253 278.454 22.5656 278.774 23.0963C279.089 23.659 279.255 24.289 279.255 24.9291C279.255 25.5692 279.089 26.1992 278.774 26.762Z" fill="white"/>
<path d="M285.996 20.4823C285.396 20.4737 284.803 20.5982 284.261 20.8461C283.719 21.0941 283.243 21.4589 282.87 21.9125V21.0695C282.874 21.005 282.865 20.9403 282.841 20.8798C282.817 20.8193 282.781 20.7644 282.733 20.7187C282.686 20.6729 282.629 20.6375 282.567 20.6147C282.504 20.5919 282.437 20.5823 282.37 20.5865C282.24 20.5871 282.114 20.6343 282.018 20.7191C281.97 20.7643 281.933 20.8191 281.909 20.8797C281.886 20.9402 281.876 21.005 281.881 21.0695V28.8272C281.878 28.8901 281.889 28.9529 281.912 29.0115C281.936 29.0702 281.972 29.1235 282.018 29.168C282.064 29.2125 282.119 29.2473 282.18 29.2702C282.24 29.293 282.305 29.3034 282.37 29.3008C282.437 29.3037 282.504 29.2934 282.566 29.2706C282.628 29.2478 282.685 29.2129 282.733 29.1682C282.822 29.0718 282.871 28.9469 282.87 28.8177V23.949C282.87 22.3861 284.506 21.3726 285.996 21.4295C286.539 21.3958 287.082 21.5037 287.568 21.7419C288.054 21.9802 288.465 22.34 288.759 22.784C289.055 23.3151 289.198 23.9142 289.17 24.5174V28.8082C289.17 28.8712 289.183 28.9336 289.208 28.9917C289.233 29.0498 289.27 29.1024 289.317 29.1465C289.363 29.1906 289.419 29.2253 289.479 29.2485C289.54 29.2718 289.605 29.2831 289.67 29.2818C289.802 29.2818 289.929 29.2309 290.023 29.1403C290.117 29.0497 290.169 28.9269 290.169 28.7987C290.101 25.3888 291.11 20.5486 285.996 20.4823Z" fill="white"/>
<path d="M294.313 15.8793C294.221 15.7847 294.111 15.7093 293.988 15.6577C293.865 15.6061 293.732 15.5795 293.598 15.5795C293.464 15.5795 293.331 15.6061 293.208 15.6577C293.085 15.7093 292.974 15.7847 292.883 15.8793C292.693 16.0851 292.592 16.3525 292.598 16.6276V28.2783C292.598 28.5295 292.702 28.7704 292.885 28.9481C293.069 29.1257 293.318 29.2255 293.578 29.2255C293.838 29.2255 294.087 29.1257 294.271 28.9481C294.455 28.7704 294.558 28.5295 294.558 28.2783V16.6371C294.569 16.3613 294.466 16.0925 294.274 15.8888L294.313 15.8793Z" fill="white"/>
<path d="M306.551 19.705C306.118 18.4933 305.3 17.4445 304.215 16.7081C303.13 15.9717 301.832 15.5852 300.506 15.6036H297.517C297.381 15.603 297.246 15.63 297.121 15.6829C296.996 15.7357 296.884 15.8132 296.791 15.9104C296.699 16.0076 296.629 16.1224 296.585 16.2473C296.542 16.3723 296.525 16.5047 296.538 16.636V28.2867C296.525 28.418 296.542 28.5504 296.585 28.6754C296.629 28.8003 296.699 28.9151 296.791 29.0123C296.884 29.1095 296.996 29.187 297.121 29.2398C297.246 29.2927 297.381 29.3197 297.517 29.3191H300.457C305.571 29.5275 308.216 23.8727 306.551 19.705ZM304.484 25.0472C304.128 25.7739 303.564 26.3867 302.859 26.8131C302.154 27.2395 301.337 27.4616 300.506 27.4531H298.546V17.4696H300.506C301.338 17.4598 302.156 17.6764 302.867 18.0947C303.559 18.5274 304.118 19.1328 304.484 19.8471C304.875 20.6615 305.078 21.5489 305.078 22.4471C305.078 23.3454 304.875 24.2328 304.484 25.0472Z" fill="white"/>
</g>
<defs>
<clipPath id="clip0_1_2266">
<rect width="327" height="45" rx="7" fill="white"/>
</clipPath>
</defs>
</svg>
