<svg width="26" height="29" viewBox="0 0 26 29" fill="none" xmlns="http://www.w3.org/2000/svg">
<g id="Logo">
<path id="Vector" d="M25.1584 4.44316C25.1564 4.38322 25.1392 4.32477 25.1083 4.27334C25.0775 4.2219 25.034 4.17919 24.982 4.14924C21.5666 2.31205 17.8446 1.11345 13.9989 0.612308C13.7025 0.551469 13.4 0.525167 13.0976 0.533927C12.9681 0.509524 12.8352 0.509524 12.7057 0.533927C8.66095 1.00487 4.7399 2.22771 1.14451 4.13944C-1.48124 13.4961 3.59391 24.3812 12.6077 28.3199C12.6886 28.3695 12.7785 28.4028 12.8722 28.4179C12.8864 28.4356 12.9042 28.45 12.9245 28.4602C12.9448 28.4703 12.9671 28.4759 12.9898 28.4766H13.0976C13.1328 28.4867 13.1701 28.4867 13.2053 28.4766C22.4249 24.6262 27.2257 14.0938 25.1584 4.44316ZM7.89505 14.2407V18.6595C7.87412 18.841 7.78719 19.0085 7.65079 19.13C7.51439 19.2516 7.33805 19.3188 7.15533 19.3188C6.97261 19.3188 6.79627 19.2516 6.65987 19.13C6.52347 19.0085 6.43653 18.841 6.41561 18.6595V14.2407C6.40359 14.1365 6.41376 14.0308 6.44544 13.9307C6.47713 13.8306 6.52962 13.7384 6.59947 13.66C6.66933 13.5816 6.75496 13.5189 6.85076 13.476C6.94655 13.4331 7.05035 13.4109 7.15533 13.4109C7.26031 13.4109 7.3641 13.4331 7.4599 13.476C7.5557 13.5189 7.64133 13.5816 7.71118 13.66C7.78104 13.7384 7.83353 13.8306 7.86521 13.9307C7.8969 14.0308 7.90707 14.1365 7.89505 14.2407ZM7.13084 11.9971C6.94681 11.9876 6.77282 11.9103 6.64252 11.78C6.51222 11.6497 6.43486 11.4757 6.42541 11.2917C6.43797 10.2837 6.67779 9.29146 7.127 8.38898C7.57621 7.48651 8.22324 6.697 9.01989 6.07927C9.81654 5.46153 10.7423 5.03148 11.7282 4.82115C12.7141 4.61082 13.7348 4.62562 14.7142 4.86446C14.8081 4.88826 14.8964 4.93033 14.9741 4.98827C15.0517 5.0462 15.1172 5.11886 15.1668 5.20211C15.2164 5.28536 15.2491 5.37755 15.2631 5.47344C15.277 5.56932 15.2719 5.66701 15.2481 5.76094C15.2243 5.85486 15.1823 5.94318 15.1243 6.02084C15.0664 6.09851 14.9937 6.16401 14.9105 6.21359C14.8272 6.26317 14.735 6.29587 14.6392 6.30983C14.5433 6.32378 14.4456 6.31871 14.3517 6.29491C13.5894 6.10746 12.7947 6.09459 12.0268 6.25726C11.2589 6.41993 10.5376 6.75393 9.91688 7.23434C9.29611 7.71474 8.79187 8.32915 8.44178 9.0317C8.09169 9.73425 7.9048 10.5068 7.89505 11.2917C7.87759 11.4788 7.78815 11.6518 7.64558 11.7743C7.50301 11.8968 7.31846 11.9591 7.13084 11.9481V11.9971ZM14.7436 24.0383C14.1889 24.3222 13.5716 24.4616 12.9488 24.4436C12.326 24.4256 11.7178 24.2507 11.1806 23.9352C10.6433 23.6196 10.1943 23.1737 9.87518 22.6385C9.55606 22.1034 9.3771 21.4964 9.35489 20.8737C9.35489 20.8737 9.35489 20.7855 9.35489 20.7463V12.7907C9.34286 12.6864 9.35303 12.5808 9.38472 12.4807C9.41641 12.3806 9.4689 12.2883 9.53875 12.21C9.6086 12.1316 9.69424 12.0689 9.79003 12.026C9.88583 11.983 9.98962 11.9608 10.0946 11.9608C10.1996 11.9608 10.3034 11.983 10.3992 12.026C10.495 12.0689 10.5806 12.1316 10.6505 12.21C10.7203 12.2883 10.7728 12.3806 10.8045 12.4807C10.8362 12.5808 10.8463 12.6864 10.8343 12.7907V20.7463C10.8343 21.3302 11.0649 21.8905 11.4759 22.3052C11.8869 22.7199 12.4451 22.9554 13.029 22.9606C13.3877 22.9531 13.7399 22.8625 14.0577 22.6961C14.2357 22.6051 14.4426 22.5886 14.6327 22.6502C14.8229 22.7117 14.9808 22.8463 15.0718 23.0243C15.1627 23.2023 15.1792 23.4091 15.1177 23.5993C15.0561 23.7895 14.9216 23.9474 14.7436 24.0383ZM13.0486 16.4452C13.1382 16.4372 13.2285 16.4471 13.3142 16.4744C13.3999 16.5017 13.4793 16.5459 13.5478 16.6043C13.6162 16.6627 13.6723 16.7342 13.7128 16.8145C13.7532 16.8949 13.7772 16.9825 13.7834 17.0722V20.8051C13.7684 20.9854 13.6827 21.1525 13.5451 21.27C13.4075 21.3874 13.229 21.4457 13.0486 21.4322C12.959 21.4402 12.8687 21.4303 12.7829 21.403C12.6972 21.3756 12.6178 21.3315 12.5494 21.2731C12.4809 21.2147 12.4249 21.1432 12.3844 21.0629C12.3439 20.9825 12.3199 20.8949 12.3138 20.8051V17.0233C12.3211 16.9344 12.3461 16.8478 12.3871 16.7686C12.4281 16.6893 12.4843 16.619 12.5526 16.5616C12.621 16.5043 12.6999 16.461 12.7851 16.4343C12.8702 16.4075 12.9597 16.3979 13.0486 16.406V16.4452ZM12.3138 14.2407V11.3015C12.3138 11.1066 12.3912 10.9197 12.529 10.7819C12.6668 10.6441 12.8537 10.5667 13.0486 10.5667C13.2435 10.5667 13.4304 10.6441 13.5682 10.7819C13.706 10.9197 13.7834 11.1066 13.7834 11.3015V14.2407C13.7848 14.3372 13.7666 14.4329 13.73 14.5221C13.6935 14.6113 13.6392 14.6922 13.5706 14.7599C13.5019 14.8277 13.4203 14.8808 13.3306 14.9162C13.2409 14.9516 13.145 14.9684 13.0486 14.9658C12.8554 14.9658 12.6699 14.8897 12.5324 14.754C12.3949 14.6183 12.3163 14.4339 12.3138 14.2407ZM16.7325 21.0011C16.7325 21.196 16.655 21.3829 16.5172 21.5207C16.3794 21.6585 16.1925 21.7359 15.9977 21.7359C15.8028 21.7359 15.6159 21.6585 15.4781 21.5207C15.3402 21.3829 15.2628 21.196 15.2628 21.0011V14.3387C15.2454 14.2322 15.2513 14.1231 15.2802 14.0191C15.3091 13.915 15.3603 13.8185 15.4302 13.7362C15.5001 13.654 15.587 13.5879 15.685 13.5425C15.783 13.4972 15.8897 13.4737 15.9977 13.4737C16.1056 13.4737 16.2123 13.4972 16.3103 13.5425C16.4083 13.5879 16.4952 13.654 16.5651 13.7362C16.635 13.8185 16.6862 13.915 16.7151 14.0191C16.744 14.1231 16.7499 14.2322 16.7325 14.3387V21.0011ZM16.0074 12.0265C15.9106 12.0278 15.8144 12.0097 15.7247 11.9732C15.6349 11.9368 15.5534 11.8827 15.4849 11.8142C15.4164 11.7457 15.3623 11.6642 15.3259 11.5744C15.2894 11.4847 15.2713 11.3885 15.2726 11.2917C15.2726 11.0005 15.215 10.7123 15.103 10.4435C14.991 10.1748 14.8268 9.93088 14.62 9.72592C14.4133 9.52096 14.1679 9.35899 13.8982 9.24936C13.6285 9.13974 13.3397 9.08463 13.0486 9.08722C12.6528 9.07976 12.2623 9.17854 11.9177 9.37325C11.573 9.56797 11.2869 9.85151 11.0891 10.1943C10.9903 10.3632 10.8285 10.486 10.6393 10.5356C10.45 10.5852 10.2488 10.5576 10.0799 10.4589C9.91101 10.3601 9.78825 10.1983 9.73864 10.0091C9.68903 9.81984 9.71663 9.61863 9.81537 9.44973C10.2332 8.76926 10.8597 8.24206 11.6016 7.94671C12.3434 7.65136 13.1609 7.60368 13.932 7.81079C14.7032 8.01791 15.3868 8.46871 15.8808 9.096C16.3749 9.72328 16.653 10.4934 16.6737 11.2917C16.6647 11.4674 16.5922 11.6338 16.4696 11.76C16.3471 11.8862 16.1828 11.9635 16.0074 11.9775V12.0265ZM19.6717 18.6595C19.6717 18.8543 19.5943 19.0413 19.4565 19.1791C19.3187 19.3169 19.1318 19.3943 18.9369 19.3943C18.742 19.3943 18.5551 19.3169 18.4173 19.1791C18.2795 19.0413 18.2021 18.8543 18.2021 18.6595V11.0761C18.1683 9.87796 17.7139 8.72991 16.9186 7.83313C16.7887 7.68761 16.7219 7.49645 16.7329 7.30168C16.7439 7.10692 16.8319 6.92451 16.9774 6.79458C17.1229 6.66466 17.3141 6.59786 17.5089 6.60889C17.7036 6.61991 17.886 6.70785 18.016 6.85337C19.0463 8.0192 19.6326 9.51096 19.6717 11.0663V18.6595Z" fill="white"/>
</g>
</svg>
