<svg width="21" height="20" viewBox="0 0 21 20" fill="none" xmlns="http://www.w3.org/2000/svg">
<g clip-path="url(#clip0_15498_14882)">
<path fill-rule="evenodd" clip-rule="evenodd" d="M4.78655 5.3902C4.39956 5.78423 4.40527 6.41737 4.79929 6.80436C5.19332 7.19135 5.82646 7.18565 6.21345 6.79162L9.5 3.44531V13C9.5 13.5523 9.94772 14 10.5 14C11.0523 14 11.5 13.5523 11.5 13V3.44531L14.7866 6.79162C15.1735 7.18565 15.8067 7.19135 16.2007 6.80436C16.5947 6.41737 16.6004 5.78423 16.2134 5.3902L11.2134 0.299292C11.0254 0.107845 10.7683 0 10.5 0C10.2317 0 9.97458 0.107845 9.78655 0.299292L4.78655 5.3902ZM2.5 10C2.5 9.44771 2.05228 9 1.5 9C0.947715 9 0.5 9.44771 0.5 10V19C0.5 19.5523 0.947715 20 1.5 20H19.5C20.0523 20 20.5 19.5523 20.5 19V10C20.5 9.44771 20.0523 9 19.5 9C18.9477 9 18.5 9.44771 18.5 10V18H2.5V10Z" fill="#828282"/>
</g>
<defs>
<clipPath id="clip0_15498_14882">
<rect width="20" height="20" fill="white" transform="translate(0.5)"/>
</clipPath>
</defs>
</svg>
