<svg width="21" height="20" viewBox="0 0 21 20" fill="none" xmlns="http://www.w3.org/2000/svg">
<g clip-path="url(#clip0_15498_14878)">
<path d="M13.21 16.4091C13.21 15.8425 13.6762 15.3832 14.2514 15.3832H15.8136V13.8443C15.8136 13.2777 16.2798 12.8184 16.855 12.8184C17.4302 12.8184 17.8964 13.2777 17.8964 13.8443V15.3832H19.4586C20.0338 15.3832 20.5001 15.8425 20.5001 16.4091C20.5001 16.9757 20.0338 17.4351 19.4586 17.4351H17.8964V18.974C17.8964 19.5406 17.4302 19.9999 16.855 19.9999C16.2798 19.9999 15.8136 19.5406 15.8136 18.974V17.4351H14.2514C13.6762 17.4351 13.21 16.9757 13.21 16.4091Z" fill="white"/>
<path fill-rule="evenodd" clip-rule="evenodd" d="M8.55574 14.1311C9.09078 14.0528 9.71788 14 10.5 14C11.2821 14 11.9092 14.0528 12.4443 14.1311C12.8459 14.1899 13.2357 14.3124 13.6047 14.4874C13.8086 14.4197 14.0262 14.3832 14.2514 14.3832H14.8136V13.8443C14.8136 13.5303 14.8848 13.2348 15.0116 12.9716C14.8582 12.8803 14.7012 12.7951 14.5409 12.7166C16.3313 11.4487 17.5 9.36081 17.5 7C17.5 3.13401 14.366 0 10.5 0C6.63401 0 3.5 3.13401 3.5 7C3.5 9.36082 4.6687 11.4487 6.4591 12.7166C4.12494 13.8599 2.5 16.4069 2.5 19C2.5 19.5523 2.94772 20 3.5 20C4.05228 20 4.5 19.5523 4.5 19C4.5 16.6979 6.35024 14.4541 8.55574 14.1311ZM5.5 7C5.5 9.76142 7.73858 12 10.5 12C13.2614 12 15.5 9.76142 15.5 7C15.5 4.23858 13.2614 2 10.5 2C7.73858 2 5.5 4.23858 5.5 7Z" fill="white"/>
<path d="M15.8531 13.5635C15.8273 13.6527 15.8136 13.7469 15.8136 13.8443V15.3832H14.89C15.8626 16.3176 16.5 17.6488 16.5 19C16.5 19.4411 16.7856 19.8154 17.1819 19.9483C17.5969 19.8133 17.8964 19.4281 17.8964 18.974V17.4351H18.3061C17.9348 15.9343 17.0525 14.548 15.8531 13.5635Z" fill="white"/>
</g>
<defs>
<clipPath id="clip0_15498_14878">
<rect width="20" height="20" fill="white" transform="translate(0.5)"/>
</clipPath>
</defs>
</svg>
