<svg width="108" height="29" viewBox="0 0 108 29" fill="none" xmlns="http://www.w3.org/2000/svg">
<path d="M0 8.64926V0.629182H2.83125C3.36233 0.629182 3.82882 0.729657 4.23072 0.930608C4.63262 1.13156 4.94481 1.41863 5.16729 1.79182C5.39695 2.16502 5.51178 2.6028 5.51178 3.10518C5.51178 3.60755 5.39695 4.04534 5.16729 4.41853C4.94481 4.78455 4.63262 5.07162 4.23072 5.27975C3.836 5.4807 3.36951 5.58117 2.83125 5.58117H1.05499V8.64926H0ZM1.05499 4.61231H2.86354C3.1865 4.61231 3.46639 4.5513 3.70323 4.4293C3.94006 4.30729 4.12307 4.13146 4.25225 3.9018C4.38143 3.67215 4.44602 3.4066 4.44602 3.10518C4.44602 2.79658 4.38143 2.53103 4.25225 2.30855C4.12307 2.0789 3.94006 1.90306 3.70323 1.78106C3.46639 1.65905 3.1865 1.59805 2.86354 1.59805H1.05499V4.61231Z" fill="white"/>
<path d="M9.36572 8.77844C8.80593 8.77844 8.29996 8.64926 7.84782 8.39089C7.39569 8.12535 7.03685 7.76292 6.77131 7.30361C6.50576 6.84429 6.37299 6.32397 6.37299 5.74265C6.37299 5.16133 6.50218 4.6446 6.76054 4.19246C7.02608 3.74032 7.38492 3.38149 7.83706 3.11594C8.2892 2.8504 8.79875 2.71763 9.36572 2.71763C9.92551 2.71763 10.4315 2.8504 10.8836 3.11594C11.3357 3.37431 11.691 3.72956 11.9494 4.1817C12.2149 4.63384 12.3477 5.15415 12.3477 5.74265C12.3477 6.33115 12.2113 6.85506 11.9386 7.31437C11.6659 7.76651 11.3035 8.12535 10.8513 8.39089C10.4064 8.64926 9.91115 8.77844 9.36572 8.77844ZM9.36572 7.80957C9.72456 7.80957 10.0475 7.71986 10.3346 7.54044C10.6288 7.36102 10.8585 7.11342 11.0236 6.79764C11.1958 6.48186 11.2819 6.1302 11.2819 5.74265C11.2819 5.34793 11.1958 4.99985 11.0236 4.69843C10.8585 4.38983 10.6288 4.14581 10.3346 3.96639C10.0475 3.7798 9.72456 3.6865 9.36572 3.6865C8.9997 3.6865 8.66957 3.7798 8.37532 3.96639C8.08825 4.14581 7.85859 4.38983 7.68635 4.69843C7.5141 4.99985 7.42798 5.34793 7.42798 5.74265C7.42798 6.1302 7.5141 6.48186 7.68635 6.79764C7.85859 7.11342 8.08825 7.36102 8.37532 7.54044C8.66957 7.71986 8.9997 7.80957 9.36572 7.80957Z" fill="white"/>
<path d="M14.8832 8.64926L12.8917 2.84681H14.0005L15.583 7.70192L15.1954 7.69115L16.7456 2.84681H17.6929L19.2431 7.69115L18.8556 7.70192L20.4488 2.84681H21.5469L19.5553 8.64926H18.5972L17.0685 3.80492H17.37L15.8413 8.64926H14.8832Z" fill="white"/>
<path d="M25.0069 8.77844C24.4471 8.77844 23.9483 8.64567 23.5105 8.38013C23.0727 8.11458 22.7282 7.75216 22.477 7.29284C22.2259 6.82635 22.1003 6.30603 22.1003 5.73189C22.1003 5.15057 22.2223 4.63384 22.4663 4.1817C22.7175 3.72956 23.0548 3.37431 23.4782 3.11594C23.9088 2.8504 24.3897 2.71763 24.9207 2.71763C25.3514 2.71763 25.7317 2.79658 26.0619 2.95447C26.3992 3.10518 26.6826 3.31331 26.9123 3.57885C27.1491 3.83721 27.3286 4.13505 27.4506 4.47236C27.5797 4.80249 27.6443 5.14698 27.6443 5.50582C27.6443 5.58476 27.6372 5.67447 27.6228 5.77495C27.6156 5.86825 27.6049 5.95796 27.5905 6.04408H22.8323V5.18286H27.0092L26.5355 5.57041C26.6001 5.19722 26.5642 4.86349 26.4279 4.56925C26.2915 4.275 26.0906 4.04175 25.825 3.86951C25.5595 3.69726 25.2581 3.61114 24.9207 3.61114C24.5834 3.61114 24.2748 3.69726 23.9949 3.86951C23.715 4.04175 23.4962 4.28935 23.3383 4.61231C23.1875 4.92809 23.1265 5.30487 23.1553 5.74265C23.1265 6.16608 23.1911 6.53928 23.349 6.86223C23.5141 7.17801 23.7437 7.42561 24.038 7.60503C24.3394 7.77728 24.666 7.8634 25.0176 7.8634C25.4052 7.8634 25.7317 7.77369 25.9973 7.59427C26.2628 7.41485 26.4781 7.18519 26.6432 6.90529L27.4829 7.3359C27.368 7.60144 27.1886 7.84545 26.9446 8.06794C26.7078 8.28324 26.4243 8.45548 26.0942 8.58467C25.7712 8.71385 25.4088 8.77844 25.0069 8.77844Z" fill="white"/>
<path d="M28.9497 8.64926V2.84681H29.9293V3.91257L29.8217 3.76186C29.958 3.43172 30.1662 3.18771 30.4461 3.02982C30.726 2.86476 31.0669 2.78222 31.4688 2.78222H31.824V3.72956H31.318C30.909 3.72956 30.5788 3.85874 30.3276 4.11711C30.0765 4.3683 29.9509 4.72714 29.9509 5.19363V8.64926H28.9497Z" fill="white"/>
<path d="M35.3831 8.77844C34.8233 8.77844 34.3245 8.64567 33.8867 8.38013C33.4489 8.11458 33.1045 7.75216 32.8533 7.29284C32.6021 6.82635 32.4765 6.30603 32.4765 5.73189C32.4765 5.15057 32.5985 4.63384 32.8425 4.1817C33.0937 3.72956 33.431 3.37431 33.8544 3.11594C34.285 2.8504 34.7659 2.71763 35.297 2.71763C35.7276 2.71763 36.1079 2.79658 36.4381 2.95447C36.7754 3.10518 37.0589 3.31331 37.2885 3.57885C37.5254 3.83721 37.7048 4.13505 37.8268 4.47236C37.956 4.80249 38.0206 5.14698 38.0206 5.50582C38.0206 5.58476 38.0134 5.67447 37.999 5.77495C37.9918 5.86825 37.9811 5.95796 37.9667 6.04408H33.2085V5.18286H37.3854L36.9117 5.57041C36.9763 5.19722 36.9404 4.86349 36.8041 4.56925C36.6677 4.275 36.4668 4.04175 36.2012 3.86951C35.9357 3.69726 35.6343 3.61114 35.297 3.61114C34.9597 3.61114 34.651 3.69726 34.3712 3.86951C34.0913 4.04175 33.8724 4.28935 33.7145 4.61231C33.5638 4.92809 33.5028 5.30487 33.5315 5.74265C33.5028 6.16608 33.5674 6.53928 33.7252 6.86223C33.8903 7.17801 34.12 7.42561 34.4142 7.60503C34.7156 7.77728 35.0422 7.8634 35.3938 7.8634C35.7814 7.8634 36.1079 7.77369 36.3735 7.59427C36.639 7.41485 36.8543 7.18519 37.0194 6.90529L37.8591 7.3359C37.7442 7.60144 37.5648 7.84545 37.3208 8.06794C37.084 8.28324 36.8005 8.45548 36.4704 8.58467C36.1474 8.71385 35.785 8.77844 35.3831 8.77844Z" fill="white"/>
<path d="M41.9634 8.77844C41.418 8.77844 40.9263 8.64567 40.4886 8.38013C40.058 8.11458 39.7171 7.75216 39.4659 7.29284C39.2147 6.83353 39.0891 6.32038 39.0891 5.75342C39.0891 5.1721 39.2147 4.65537 39.4659 4.20323C39.7171 3.74391 40.058 3.38149 40.4886 3.11594C40.9263 2.8504 41.418 2.71763 41.9634 2.71763C42.4442 2.71763 42.8713 2.8217 43.2444 3.02982C43.6176 3.23077 43.9119 3.50349 44.1272 3.84798L43.9657 4.09558V0.5H44.9776V8.64926H43.998V7.41126L44.1272 7.5835C43.9262 7.96387 43.632 8.25812 43.2444 8.46625C42.8641 8.67437 42.4371 8.77844 41.9634 8.77844ZM42.0495 7.80957C42.4155 7.80957 42.7421 7.71986 43.0291 7.54044C43.3162 7.36102 43.5423 7.11701 43.7073 6.80841C43.8796 6.49263 43.9657 6.14096 43.9657 5.75342C43.9657 5.35869 43.8796 5.00703 43.7073 4.69843C43.5423 4.38265 43.3162 4.13505 43.0291 3.95563C42.7421 3.77621 42.4155 3.6865 42.0495 3.6865C41.6907 3.6865 41.3641 3.7798 41.0699 3.96639C40.7828 4.14581 40.5567 4.38983 40.3917 4.69843C40.2266 4.99985 40.1441 5.35152 40.1441 5.75342C40.1441 6.14096 40.2266 6.49263 40.3917 6.80841C40.5567 7.11701 40.7828 7.36102 41.0699 7.54044C41.3569 7.71986 41.6835 7.80957 42.0495 7.80957Z" fill="white"/>
<path d="M51.3915 8.77844C50.925 8.77844 50.498 8.67437 50.1105 8.46625C49.7301 8.25812 49.4358 7.96387 49.2277 7.5835L49.3677 7.41126V8.64926H48.388V0.5H49.3892V4.09558L49.2385 3.84798C49.4538 3.50349 49.748 3.23077 50.1212 3.02982C50.4944 2.8217 50.9214 2.71763 51.4023 2.71763C51.9477 2.71763 52.4357 2.8504 52.8663 3.11594C53.3041 3.38149 53.6486 3.74391 53.8998 4.20323C54.151 4.65537 54.2766 5.1721 54.2766 5.75342C54.2766 6.32038 54.151 6.83353 53.8998 7.29284C53.6486 7.75216 53.3041 8.11458 52.8663 8.38013C52.4357 8.64567 51.9441 8.77844 51.3915 8.77844ZM51.3162 7.80957C51.6822 7.80957 52.0087 7.71986 52.2958 7.54044C52.5829 7.36102 52.8053 7.11701 52.9632 6.80841C53.1283 6.49263 53.2108 6.14096 53.2108 5.75342C53.2108 5.35152 53.1283 4.99985 52.9632 4.69843C52.8053 4.38983 52.5829 4.14581 52.2958 3.96639C52.0087 3.7798 51.6822 3.6865 51.3162 3.6865C50.9501 3.6865 50.62 3.77621 50.3258 3.95563C50.0387 4.13505 49.809 4.38265 49.6368 4.69843C49.4717 5.00703 49.3892 5.35869 49.3892 5.75342C49.3892 6.14096 49.4717 6.49263 49.6368 6.80841C49.809 7.11701 50.0387 7.36102 50.3258 7.54044C50.62 7.71986 50.9501 7.80957 51.3162 7.80957Z" fill="white"/>
<path d="M55.7964 11.0176C55.6672 11.0176 55.538 11.0068 55.4089 10.9853C55.2797 10.971 55.1577 10.9387 55.0428 10.8884V9.99491C55.1218 10.0021 55.2187 10.0164 55.3335 10.038C55.4555 10.0595 55.5739 10.0703 55.6888 10.0703C56.0261 10.0703 56.2808 9.99491 56.4531 9.84419C56.6325 9.69348 56.8012 9.4387 56.959 9.07986L57.3251 8.20788L57.3035 9.07986L54.8275 2.84681H55.9148L57.8418 7.79881H57.5188L59.435 2.84681H60.5439L57.9279 9.33823C57.8059 9.64683 57.648 9.93032 57.4542 10.1887C57.2677 10.447 57.038 10.648 56.7653 10.7915C56.4926 10.9422 56.1696 11.0176 55.7964 11.0176Z" fill="white"/>
<g clip-path="url(#clip0_16050_7171)">
<path fill-rule="evenodd" clip-rule="evenodd" d="M8.21819 13.4446L0.0752317 27.6854C0.0193239 27.7836 -0.00465571 27.897 0.00662804 28.0095C0.0179118 28.1221 0.0638979 28.2284 0.138191 28.3135C0.212483 28.3987 0.31139 28.4585 0.421153 28.4847C0.530917 28.5108 0.646081 28.502 0.750629 28.4595L6.34476 26.1774C7.84832 25.565 9.53079 25.565 11.0344 26.1774L16.6285 28.4575C16.7328 28.4996 16.8476 28.5081 16.9569 28.4819C17.0663 28.4558 17.1648 28.3962 17.239 28.3114C17.3131 28.2267 17.3592 28.1209 17.3708 28.0088C17.3824 27.8966 17.3591 27.7836 17.3039 27.6854L9.15892 13.4446C9.11133 13.3617 9.0428 13.2929 8.96022 13.245C8.87764 13.1971 8.78394 13.1719 8.68855 13.1719C8.59317 13.1719 8.49946 13.1971 8.41689 13.245C8.33431 13.2929 8.26577 13.3617 8.21819 13.4446Z" fill="url(#paint0_linear_16050_7171)"/>
<path fill-rule="evenodd" clip-rule="evenodd" d="M15.226 24.0566C13.1495 23.1414 6.91014 25.9214 6.34329 26.1794L6.30108 26.1976L0.749151 28.4575C0.644843 28.4996 0.53008 28.5081 0.420719 28.4819C0.311358 28.4558 0.212797 28.3962 0.138653 28.3114C0.0645089 28.2267 0.0184418 28.1209 0.00681612 28.0088C-0.00480952 27.8966 0.0185803 27.7836 0.0737539 27.6854L8.21872 13.4446C8.26631 13.3617 8.33484 13.2929 8.41742 13.245C8.5 13.1971 8.5937 13.1719 8.68909 13.1719C8.78447 13.1719 8.87818 13.1971 8.96075 13.245C9.04333 13.2929 9.11187 13.3617 9.15945 13.4446L15.226 24.0566Z" fill="white"/>
</g>
<g filter="url(#filter0_d_16050_7171)">
<path d="M28.0972 20.7807C28.6705 20.9029 29.131 21.1896 29.4788 21.6407C29.8265 22.0825 30.0004 22.59 30.0004 23.1633C30.0004 23.9904 29.7091 24.6483 29.1263 25.1371C28.553 25.6164 27.7494 25.8561 26.7156 25.8561H22.1055V15.9592H26.5605C27.5661 15.9592 28.3509 16.1895 28.9149 16.65C29.4882 17.1105 29.7748 17.7356 29.7748 18.525C29.7748 19.1078 29.6198 19.5918 29.3096 19.9772C29.0088 20.3625 28.6047 20.6304 28.0972 20.7807ZM24.5162 19.9631H26.0952C26.49 19.9631 26.7907 19.8785 26.9975 19.7093C27.2137 19.5307 27.3218 19.2722 27.3218 18.9339C27.3218 18.5955 27.2137 18.3371 26.9975 18.1585C26.7907 17.9799 26.49 17.8906 26.0952 17.8906H24.5162V19.9631ZM26.2926 23.9105C26.6968 23.9105 27.0069 23.8212 27.2231 23.6427C27.4487 23.4547 27.5614 23.1868 27.5614 22.8391C27.5614 22.4913 27.444 22.2188 27.209 22.0214C26.9834 21.824 26.6686 21.7253 26.2644 21.7253H24.5162V23.9105H26.2926Z" fill="white"/>
<path d="M38.7215 21.7958C38.7215 22.0214 38.7074 22.2564 38.6792 22.5007H33.2233C33.2609 22.9895 33.4159 23.3654 33.6885 23.6286C33.9705 23.8823 34.3135 24.0092 34.7177 24.0092C35.3192 24.0092 35.7374 23.7555 35.9724 23.2479H38.5382C38.4067 23.7649 38.167 24.2301 37.8192 24.6436C37.4809 25.0572 37.0532 25.3814 36.5363 25.6164C36.0194 25.8514 35.4414 25.9689 34.8022 25.9689C34.0315 25.9689 33.3454 25.8044 32.7439 25.4754C32.1424 25.1465 31.6725 24.6765 31.3341 24.0656C30.9958 23.4547 30.8266 22.7404 30.8266 21.9227C30.8266 21.105 30.9911 20.3907 31.32 19.7798C31.6584 19.1689 32.1283 18.6989 32.7298 18.37C33.3313 18.041 34.0222 17.8765 34.8022 17.8765C35.5635 17.8765 36.2403 18.0363 36.8324 18.3559C37.4245 18.6754 37.885 19.1313 38.214 19.7234C38.5523 20.3155 38.7215 21.0063 38.7215 21.7958ZM36.2544 21.1614C36.2544 20.7479 36.1134 20.4189 35.8314 20.1745C35.5494 19.9302 35.197 19.808 34.7741 19.808C34.3699 19.808 34.0269 19.9255 33.7449 20.1604C33.4723 20.3954 33.3031 20.7291 33.2374 21.1614H36.2544Z" fill="white"/>
<path d="M44.2851 23.8118V25.8561H43.0586C42.1845 25.8561 41.5031 25.6446 41.0143 25.2217C40.5256 24.7893 40.2812 24.0891 40.2812 23.121V19.9913H39.3226V17.9893H40.2812V16.072H42.692V17.9893H44.271V19.9913H42.692V23.1492C42.692 23.3842 42.7484 23.5534 42.8612 23.6568C42.974 23.7602 43.1619 23.8118 43.4251 23.8118H44.2851Z" fill="white"/>
<path d="M49.9197 23.8118V25.8561H48.6932C47.8191 25.8561 47.1377 25.6446 46.6489 25.2217C46.1602 24.7893 45.9158 24.0891 45.9158 23.121V19.9913H44.9572V17.9893H45.9158V16.072H48.3266V17.9893H49.9056V19.9913H48.3266V23.1492C48.3266 23.3842 48.383 23.5534 48.4958 23.6568C48.6086 23.7602 48.7966 23.8118 49.0597 23.8118H49.9197Z" fill="white"/>
<path d="M58.5854 21.7958C58.5854 22.0214 58.5713 22.2564 58.5431 22.5007H53.0871C53.1247 22.9895 53.2798 23.3654 53.5524 23.6286C53.8343 23.8823 54.1774 24.0092 54.5815 24.0092C55.1831 24.0092 55.6013 23.7555 55.8363 23.2479H58.4021C58.2706 23.7649 58.0309 24.2301 57.6831 24.6436C57.3448 25.0572 56.9171 25.3814 56.4002 25.6164C55.8833 25.8514 55.3053 25.9689 54.6661 25.9689C53.8954 25.9689 53.2093 25.8044 52.6078 25.4754C52.0063 25.1465 51.5364 24.6765 51.198 24.0656C50.8596 23.4547 50.6905 22.7404 50.6905 21.9227C50.6905 21.105 50.8549 20.3907 51.1839 19.7798C51.5223 19.1689 51.9922 18.6989 52.5937 18.37C53.1952 18.041 53.886 17.8765 54.6661 17.8765C55.4274 17.8765 56.1041 18.0363 56.6963 18.3559C57.2884 18.6754 57.7489 19.1313 58.0779 19.7234C58.4162 20.3155 58.5854 21.0063 58.5854 21.7958ZM56.1182 21.1614C56.1182 20.7479 55.9773 20.4189 55.6953 20.1745C55.4133 19.9302 55.0609 19.808 54.6379 19.808C54.2338 19.808 53.8907 19.9255 53.6088 20.1604C53.3362 20.3954 53.167 20.7291 53.1012 21.1614H56.1182Z" fill="white"/>
<path d="M62.1752 19.3004C62.4572 18.8681 62.8097 18.5297 63.2326 18.2854C63.6555 18.0316 64.1255 17.9047 64.6424 17.9047V20.4565H63.9798C63.3783 20.4565 62.9271 20.5881 62.6264 20.8512C62.3256 21.105 62.1752 21.5561 62.1752 22.2047V25.8561H59.7645V17.9893H62.1752V19.3004Z" fill="white"/>
<path d="M69.2829 25.9548C68.5592 25.9548 67.9107 25.8373 67.3373 25.6023C66.764 25.3673 66.3035 25.0196 65.9557 24.559C65.6174 24.0985 65.4388 23.544 65.42 22.8955H67.9859C68.0235 23.262 68.1503 23.544 68.3665 23.7414C68.5827 23.9293 68.8646 24.0233 69.2124 24.0233C69.5695 24.0233 69.8515 23.9434 70.0583 23.7836C70.2651 23.6145 70.3684 23.3842 70.3684 23.0928C70.3684 22.8485 70.2839 22.6464 70.1147 22.4866C69.9549 22.3268 69.7528 22.1953 69.5085 22.0919C69.2735 21.9885 68.9351 21.871 68.4934 21.7394C67.8543 21.542 67.3326 21.3447 66.9285 21.1473C66.5244 20.9499 66.1766 20.6586 65.8852 20.2732C65.5939 19.8879 65.4482 19.385 65.4482 18.7647C65.4482 17.8436 65.7819 17.1246 66.4492 16.6077C67.1165 16.0814 67.9859 15.8182 69.0573 15.8182C70.1476 15.8182 71.0264 16.0814 71.6937 16.6077C72.361 17.1246 72.7181 17.8483 72.7651 18.7788H70.157C70.1382 18.4593 70.0207 18.2102 69.8045 18.0316C69.5883 17.8436 69.3111 17.7497 68.9727 17.7497C68.6814 17.7497 68.4464 17.8295 68.2678 17.9893C68.0892 18.1397 68 18.3606 68 18.6519C68 18.9715 68.1503 19.2206 68.4511 19.3991C68.7519 19.5777 69.2218 19.7704 69.8609 19.9772C70.5 20.1933 71.017 20.4001 71.4117 20.5975C71.8158 20.7948 72.1636 21.0815 72.455 21.4575C72.7463 21.8334 72.892 22.3174 72.892 22.9096C72.892 23.4735 72.7463 23.9857 72.455 24.4463C72.173 24.9068 71.7595 25.2733 71.2143 25.5459C70.6692 25.8185 70.0254 25.9548 69.2829 25.9548Z" fill="white"/>
<path d="M77.8638 25.9689C77.0931 25.9689 76.3976 25.8044 75.7773 25.4754C75.1663 25.1465 74.6823 24.6765 74.3252 24.0656C73.9774 23.4547 73.8035 22.7404 73.8035 21.9227C73.8035 21.1144 73.9821 20.4048 74.3393 19.7939C74.6964 19.1736 75.1851 18.6989 75.8055 18.37C76.4258 18.041 77.1213 17.8765 77.892 17.8765C78.6627 17.8765 79.3582 18.041 79.9785 18.37C80.5988 18.6989 81.0876 19.1736 81.4447 19.7939C81.8019 20.4048 81.9804 21.1144 81.9804 21.9227C81.9804 22.731 81.7972 23.4453 81.4306 24.0656C81.0735 24.6765 80.58 25.1465 79.9503 25.4754C79.33 25.8044 78.6345 25.9689 77.8638 25.9689ZM77.8638 23.8823C78.3243 23.8823 78.7144 23.7132 79.0339 23.3748C79.3629 23.0364 79.5274 22.5524 79.5274 21.9227C79.5274 21.293 79.3676 20.8089 79.048 20.4706C78.7379 20.1322 78.3525 19.9631 77.892 19.9631C77.422 19.9631 77.032 20.1322 76.7218 20.4706C76.4117 20.7995 76.2566 21.2836 76.2566 21.9227C76.2566 22.5524 76.407 23.0364 76.7077 23.3748C77.0179 23.7132 77.4033 23.8823 77.8638 23.8823Z" fill="white"/>
<path d="M82.6873 21.9227C82.6873 21.105 82.8518 20.3907 83.1807 19.7798C83.5191 19.1689 83.9843 18.6989 84.5765 18.37C85.178 18.041 85.8641 17.8765 86.6348 17.8765C87.6217 17.8765 88.444 18.135 89.102 18.6519C89.7693 19.1689 90.2063 19.8973 90.4131 20.8371H87.8472C87.6311 20.2356 87.2128 19.9349 86.5925 19.9349C86.1507 19.9349 85.7983 20.1087 85.5351 20.4565C85.272 20.7948 85.1404 21.2836 85.1404 21.9227C85.1404 22.5618 85.272 23.0552 85.5351 23.403C85.7983 23.7414 86.1507 23.9105 86.5925 23.9105C87.2128 23.9105 87.6311 23.6098 87.8472 23.0083H90.4131C90.2063 23.9293 89.7693 24.653 89.102 25.1794C88.4346 25.7057 87.6123 25.9689 86.6348 25.9689C85.8641 25.9689 85.178 25.8044 84.5765 25.4754C83.9843 25.1465 83.5191 24.6765 83.1807 24.0656C82.8518 23.4547 82.6873 22.7404 82.6873 21.9227Z" fill="white"/>
<path d="M92.8223 17.1716C92.3994 17.1716 92.0516 17.0494 91.779 16.8051C91.5159 16.5513 91.3843 16.2412 91.3843 15.8746C91.3843 15.4987 91.5159 15.1885 91.779 14.9441C92.0516 14.6904 92.3994 14.5635 92.8223 14.5635C93.2359 14.5635 93.5742 14.6904 93.8374 14.9441C94.1099 15.1885 94.2462 15.4987 94.2462 15.8746C94.2462 16.2412 94.1099 16.5513 93.8374 16.8051C93.5742 17.0494 93.2359 17.1716 92.8223 17.1716ZM94.0207 17.9893V25.8561H91.6099V17.9893H94.0207Z" fill="white"/>
<path d="M95.1956 21.9086C95.1956 21.1003 95.346 20.3907 95.6468 19.7798C95.9569 19.1689 96.3752 18.6989 96.9015 18.37C97.4278 18.041 98.0153 17.8765 98.6638 17.8765C99.2183 17.8765 99.7023 17.9893 100.116 18.2149C100.539 18.4405 100.863 18.7365 101.089 19.1031V17.9893H103.499V25.8561H101.089V24.7423C100.854 25.1089 100.525 25.4049 100.102 25.6305C99.6882 25.8561 99.2042 25.9689 98.6497 25.9689C98.0106 25.9689 97.4278 25.8044 96.9015 25.4754C96.3752 25.1371 95.9569 24.6624 95.6468 24.0515C95.346 23.4312 95.1956 22.7169 95.1956 21.9086ZM101.089 21.9227C101.089 21.3212 100.919 20.8465 100.581 20.4988C100.252 20.151 99.848 19.9772 99.3687 19.9772C98.8893 19.9772 98.4805 20.151 98.1421 20.4988C97.8132 20.8371 97.6487 21.3071 97.6487 21.9086C97.6487 22.5101 97.8132 22.9895 98.1421 23.3466C98.4805 23.6944 98.8893 23.8682 99.3687 23.8682C99.848 23.8682 100.252 23.6944 100.581 23.3466C100.919 22.9989 101.089 22.5242 101.089 21.9227Z" fill="white"/>
<path d="M107.562 15.4235V25.8561H105.151V15.4235H107.562Z" fill="white"/>
</g>
<defs>
<filter id="filter0_d_16050_7171" x="21.7345" y="14.0996" width="86.3201" height="12.9094" filterUnits="userSpaceOnUse" color-interpolation-filters="sRGB">
<feFlood flood-opacity="0" result="BackgroundImageFix"/>
<feColorMatrix in="SourceAlpha" type="matrix" values="0 0 0 0 0 0 0 0 0 0 0 0 0 0 0 0 0 0 127 0" result="hardAlpha"/>
<feOffset dy="0.649256"/>
<feGaussianBlur stdDeviation="0.185502"/>
<feComposite in2="hardAlpha" operator="out"/>
<feColorMatrix type="matrix" values="0 0 0 0 0 0 0 0 0 0 0 0 0 0 0 0 0 0 0.06 0"/>
<feBlend mode="normal" in2="BackgroundImageFix" result="effect1_dropShadow_16050_7171"/>
<feBlend mode="normal" in="SourceGraphic" in2="effect1_dropShadow_16050_7171" result="shape"/>
</filter>
<linearGradient id="paint0_linear_16050_7171" x1="8.68882" y1="13.1719" x2="16.0752" y2="28.4774" gradientUnits="userSpaceOnUse">
<stop stop-color="#9B9B9B"/>
<stop offset="1" stop-color="white"/>
</linearGradient>
<clipPath id="clip0_16050_7171">
<rect width="17.3774" height="15.3294" fill="white" transform="translate(0 13.1704)"/>
</clipPath>
</defs>
</svg>
