<svg width="109" height="29" viewBox="0 0 109 29" fill="none" xmlns="http://www.w3.org/2000/svg">
<path d="M0.5 8.23323V0.213166H3.33124C3.86233 0.213166 4.32882 0.313642 4.73072 0.514592C5.13262 0.715542 5.44481 1.00261 5.66729 1.37581C5.89695 1.749 6.01178 2.18678 6.01178 2.68916C6.01178 3.19154 5.89695 3.62932 5.66729 4.00251C5.44481 4.36853 5.13262 4.6556 4.73072 4.86373C4.336 5.06468 3.8695 5.16515 3.33124 5.16515H1.55499V8.23323H0.5ZM1.55499 4.19629H3.36354C3.6865 4.19629 3.96639 4.13528 4.20322 4.01328C4.44006 3.89127 4.62307 3.71544 4.75225 3.48578C4.88143 3.25613 4.94602 2.99059 4.94602 2.68916C4.94602 2.38056 4.88143 2.11502 4.75225 1.89254C4.62307 1.66288 4.44006 1.48705 4.20322 1.36504C3.96639 1.24304 3.6865 1.18203 3.36354 1.18203H1.55499V4.19629Z" fill="white"/>
<path d="M9.86571 8.36241C9.30592 8.36241 8.79996 8.23323 8.34782 7.97487C7.89568 7.70933 7.53684 7.3469 7.2713 6.88758C7.00576 6.42827 6.87299 5.90795 6.87299 5.32663C6.87299 4.74531 7.00217 4.22858 7.26054 3.77644C7.52608 3.32431 7.88492 2.96547 8.33706 2.69993C8.7892 2.43438 9.29875 2.30161 9.86571 2.30161C10.4255 2.30161 10.9315 2.43438 11.3836 2.69993C11.8357 2.95829 12.191 3.31354 12.4494 3.76568C12.7149 4.21782 12.8477 4.73813 12.8477 5.32663C12.8477 5.91513 12.7113 6.43903 12.4386 6.89835C12.1659 7.35049 11.8034 7.70933 11.3513 7.97487C10.9063 8.23323 10.4111 8.36241 9.86571 8.36241ZM9.86571 7.39355C10.2246 7.39355 10.5475 7.30384 10.8346 7.12442C11.1288 6.945 11.3585 6.6974 11.5236 6.38162C11.6958 6.06584 11.7819 5.71418 11.7819 5.32663C11.7819 4.93191 11.6958 4.58383 11.5236 4.28241C11.3585 3.97381 11.1288 3.72979 10.8346 3.55037C10.5475 3.36378 10.2246 3.27048 9.86571 3.27048C9.4997 3.27048 9.16956 3.36378 8.87532 3.55037C8.58824 3.72979 8.35859 3.97381 8.18634 4.28241C8.0141 4.58383 7.92798 4.93191 7.92798 5.32663C7.92798 5.71418 8.0141 6.06584 8.18634 6.38162C8.35859 6.6974 8.58824 6.945 8.87532 7.12442C9.16956 7.30384 9.4997 7.39355 9.86571 7.39355Z" fill="white"/>
<path d="M15.3832 8.23323L13.3916 2.4308H14.5005L16.0829 7.28589L15.6954 7.27513L17.2456 2.4308H18.1929L19.7431 7.27513L19.3556 7.28589L20.9488 2.4308H22.0469L20.0553 8.23323H19.0972L17.5685 3.3889H17.87L16.3413 8.23323H15.3832Z" fill="white"/>
<path d="M25.5069 8.36241C24.9471 8.36241 24.4483 8.22964 24.0105 7.9641C23.5727 7.69856 23.2282 7.33613 22.977 6.87682C22.7259 6.41033 22.6003 5.89001 22.6003 5.31587C22.6003 4.73455 22.7223 4.21782 22.9663 3.76568C23.2175 3.31354 23.5548 2.95829 23.9782 2.69993C24.4088 2.43438 24.8897 2.30161 25.4207 2.30161C25.8513 2.30161 26.2317 2.38056 26.5618 2.53845C26.8992 2.68916 27.1826 2.89729 27.4123 3.16283C27.6491 3.42119 27.8286 3.71903 27.9506 4.05634C28.0797 4.38647 28.1443 4.73096 28.1443 5.0898C28.1443 5.16874 28.1372 5.25845 28.1228 5.35893C28.1156 5.45222 28.1049 5.54193 28.0905 5.62806H23.3323V4.76684H27.5092L27.0355 5.15439C27.1001 4.78119 27.0642 4.44747 26.9279 4.15323C26.7915 3.85898 26.5906 3.62573 26.325 3.45349C26.0595 3.28124 25.758 3.19512 25.4207 3.19512C25.0834 3.19512 24.7748 3.28124 24.4949 3.45349C24.215 3.62573 23.9961 3.87333 23.8383 4.19629C23.6875 4.51206 23.6265 4.88885 23.6552 5.32663C23.6265 5.75006 23.6911 6.12326 23.849 6.44621C24.0141 6.76199 24.2437 7.00959 24.538 7.18901C24.8394 7.36125 25.166 7.44737 25.5176 7.44737C25.9052 7.44737 26.2317 7.35766 26.4973 7.17824C26.7628 6.99882 26.9781 6.76917 27.1432 6.48927L27.9829 6.91988C27.868 7.18542 27.6886 7.42943 27.4446 7.65191C27.2078 7.86722 26.9243 8.03946 26.5941 8.16864C26.2712 8.29782 25.9088 8.36241 25.5069 8.36241Z" fill="white"/>
<path d="M29.4497 8.23323V2.4308H30.4293V3.49655L30.3217 3.34584C30.458 3.0157 30.6662 2.77169 30.9461 2.6138C31.2259 2.44874 31.5668 2.3662 31.9687 2.3662H32.324V3.31354H31.818C31.409 3.31354 31.0788 3.44272 30.8276 3.70109C30.5764 3.95228 30.4509 4.31111 30.4509 4.77761V8.23323H29.4497Z" fill="white"/>
<path d="M35.8831 8.36241C35.3233 8.36241 34.8245 8.22964 34.3867 7.9641C33.9489 7.69856 33.6044 7.33613 33.3533 6.87682C33.1021 6.41033 32.9765 5.89001 32.9765 5.31587C32.9765 4.73455 33.0985 4.21782 33.3425 3.76568C33.5937 3.31354 33.931 2.95829 34.3544 2.69993C34.785 2.43438 35.2659 2.30161 35.7969 2.30161C36.2276 2.30161 36.6079 2.38056 36.9381 2.53845C37.2754 2.68916 37.5588 2.89729 37.7885 3.16283C38.0253 3.42119 38.2048 3.71903 38.3268 4.05634C38.4559 4.38647 38.5205 4.73096 38.5205 5.0898C38.5205 5.16874 38.5134 5.25845 38.499 5.35893C38.4918 5.45222 38.4811 5.54193 38.4667 5.62806H33.7085V4.76684H37.8854L37.4117 5.15439C37.4763 4.78119 37.4404 4.44747 37.3041 4.15323C37.1677 3.85898 36.9668 3.62573 36.7012 3.45349C36.4357 3.28124 36.1343 3.19512 35.7969 3.19512C35.4596 3.19512 35.151 3.28124 34.8711 3.45349C34.5912 3.62573 34.3724 3.87333 34.2145 4.19629C34.0638 4.51206 34.0028 4.88885 34.0315 5.32663C34.0028 5.75006 34.0673 6.12326 34.2252 6.44621C34.3903 6.76199 34.62 7.00959 34.9142 7.18901C35.2156 7.36125 35.5422 7.44737 35.8938 7.44737C36.2814 7.44737 36.6079 7.35766 36.8735 7.17824C37.139 6.99882 37.3543 6.76917 37.5194 6.48927L38.3591 6.91988C38.2442 7.18542 38.0648 7.42943 37.8208 7.65191C37.584 7.86722 37.3005 8.03946 36.9704 8.16864C36.6474 8.29782 36.285 8.36241 35.8831 8.36241Z" fill="white"/>
<path d="M42.4634 8.36241C41.9179 8.36241 41.4263 8.22964 40.9885 7.9641C40.5579 7.69856 40.217 7.33613 39.9659 6.87682C39.7147 6.4175 39.5891 5.90436 39.5891 5.3374C39.5891 4.75608 39.7147 4.23935 39.9659 3.78721C40.217 3.32789 40.5579 2.96547 40.9885 2.69993C41.4263 2.43438 41.9179 2.30161 42.4634 2.30161C42.9442 2.30161 43.3712 2.40568 43.7444 2.6138C44.1176 2.81475 44.4119 3.08747 44.6272 3.43196L44.4657 3.67956V0.0839844H45.4776V8.23323H44.498V6.99523L44.6272 7.16748C44.4262 7.54785 44.132 7.8421 43.7444 8.05022C43.3641 8.25835 42.937 8.36241 42.4634 8.36241ZM42.5495 7.39355C42.9155 7.39355 43.2421 7.30384 43.5291 7.12442C43.8162 6.945 44.0423 6.70099 44.2073 6.39238C44.3796 6.07661 44.4657 5.72494 44.4657 5.3374C44.4657 4.94267 44.3796 4.59101 44.2073 4.28241C44.0423 3.96663 43.8162 3.71903 43.5291 3.53961C43.2421 3.36019 42.9155 3.27048 42.5495 3.27048C42.1907 3.27048 41.8641 3.36378 41.5699 3.55037C41.2828 3.72979 41.0567 3.97381 40.8917 4.28241C40.7266 4.58383 40.6441 4.9355 40.6441 5.3374C40.6441 5.72494 40.7266 6.07661 40.8917 6.39238C41.0567 6.70099 41.2828 6.945 41.5699 7.12442C41.8569 7.30384 42.1835 7.39355 42.5495 7.39355Z" fill="white"/>
<path d="M51.8915 8.36241C51.425 8.36241 50.998 8.25835 50.6104 8.05022C50.2301 7.8421 49.9358 7.54785 49.7277 7.16748L49.8676 6.99523V8.23323H48.888V0.0839844H49.8892V3.67956L49.7385 3.43196C49.9538 3.08747 50.248 2.81475 50.6212 2.6138C50.9944 2.40568 51.4214 2.30161 51.9023 2.30161C52.4477 2.30161 52.9357 2.43438 53.3663 2.69993C53.8041 2.96547 54.1486 3.32789 54.3998 3.78721C54.651 4.23935 54.7766 4.75608 54.7766 5.3374C54.7766 5.90436 54.651 6.4175 54.3998 6.87682C54.1486 7.33613 53.8041 7.69856 53.3663 7.9641C52.9357 8.22964 52.4441 8.36241 51.8915 8.36241ZM51.8161 7.39355C52.1822 7.39355 52.5087 7.30384 52.7958 7.12442C53.0828 6.945 53.3053 6.70099 53.4632 6.39238C53.6283 6.07661 53.7108 5.72494 53.7108 5.3374C53.7108 4.9355 53.6283 4.58383 53.4632 4.28241C53.3053 3.97381 53.0828 3.72979 52.7958 3.55037C52.5087 3.36378 52.1822 3.27048 51.8161 3.27048C51.4501 3.27048 51.12 3.36019 50.8257 3.53961C50.5387 3.71903 50.309 3.96663 50.1368 4.28241C49.9717 4.59101 49.8892 4.94267 49.8892 5.3374C49.8892 5.72494 49.9717 6.07661 50.1368 6.39238C50.309 6.70099 50.5387 6.945 50.8257 7.12442C51.12 7.30384 51.4501 7.39355 51.8161 7.39355Z" fill="white"/>
<path d="M56.2964 10.6016C56.1672 10.6016 56.038 10.5908 55.9088 10.5693C55.7797 10.5549 55.6577 10.5226 55.5428 10.4724V9.57888C55.6218 9.58606 55.7187 9.60041 55.8335 9.62194C55.9555 9.64347 56.0739 9.65424 56.1887 9.65424C56.526 9.65424 56.7808 9.57888 56.9531 9.42817C57.1325 9.27746 57.3011 9.02268 57.459 8.66384L57.825 7.79186L57.8035 8.66384L55.3275 2.4308H56.4148L58.3418 7.38278H58.0188L59.935 2.4308H61.0438L58.4279 8.9222C58.3059 9.23081 58.148 9.51429 57.9542 9.77265C57.7676 10.031 57.538 10.232 57.2653 10.3755C56.9925 10.5262 56.6696 10.6016 56.2964 10.6016Z" fill="white"/>
<g clip-path="url(#clip0_15075_122597)">
<path fill-rule="evenodd" clip-rule="evenodd" d="M8.71745 13.0291L0.574499 27.2698C0.518591 27.3681 0.494612 27.4814 0.505896 27.594C0.517179 27.7066 0.563165 27.8128 0.637458 27.898C0.711751 27.9831 0.810657 28.043 0.92042 28.0691C1.03018 28.0953 1.14535 28.0865 1.2499 28.044L6.84403 25.7619C8.34758 25.1495 10.0301 25.1495 11.5336 25.7619L17.1277 28.0419C17.2321 28.084 17.3468 28.0926 17.4562 28.0664C17.5655 28.0402 17.6641 27.9807 17.7382 27.8959C17.8124 27.8111 17.8585 27.7054 17.8701 27.5932C17.8817 27.4811 17.8583 27.3681 17.8031 27.2698L9.65818 13.0291C9.61059 12.9462 9.54206 12.8773 9.45948 12.8294C9.3769 12.7816 9.2832 12.7563 9.18781 12.7563C9.09243 12.7563 8.99873 12.7816 8.91615 12.8294C8.83357 12.8773 8.76504 12.9462 8.71745 13.0291Z" fill="white"/>
<path fill-rule="evenodd" clip-rule="evenodd" d="M8.71745 13.0291L0.574499 27.2698C0.518591 27.3681 0.494612 27.4814 0.505896 27.594C0.517179 27.7066 0.563165 27.8128 0.637458 27.898C0.711751 27.9831 0.810657 28.043 0.92042 28.0691C1.03018 28.0953 1.14535 28.0865 1.2499 28.044L6.84403 25.7619C8.34758 25.1495 10.0301 25.1495 11.5336 25.7619L17.1277 28.0419C17.2321 28.084 17.3468 28.0926 17.4562 28.0664C17.5655 28.0402 17.6641 27.9807 17.7382 27.8959C17.8124 27.8111 17.8585 27.7054 17.8701 27.5932C17.8817 27.4811 17.8583 27.3681 17.8031 27.2698L9.65818 13.0291C9.61059 12.9462 9.54206 12.8773 9.45948 12.8294C9.3769 12.7816 9.2832 12.7563 9.18781 12.7563C9.09243 12.7563 8.99873 12.7816 8.91615 12.8294C8.83357 12.8773 8.76504 12.9462 8.71745 13.0291Z" fill="white"/>
<path fill-rule="evenodd" clip-rule="evenodd" d="M15.7264 23.6411C13.65 22.7259 7.41062 25.5059 6.84377 25.7639L6.80156 25.7821L1.24964 28.0419C1.14533 28.084 1.03057 28.0926 0.921207 28.0664C0.811846 28.0402 0.713285 27.9807 0.639141 27.8959C0.564997 27.8111 0.51893 27.7054 0.507304 27.5932C0.495679 27.4811 0.519069 27.3681 0.574242 27.2698L8.7192 13.0291C8.76679 12.9462 8.83533 12.8773 8.9179 12.8294C9.00048 12.7816 9.09418 12.7563 9.18957 12.7563C9.28496 12.7563 9.37866 12.7816 9.46124 12.8294C9.54381 12.8773 9.61235 12.9462 9.65993 13.0291L15.7264 23.6411Z" fill="white"/>
<path fill-rule="evenodd" clip-rule="evenodd" d="M15.7264 23.6411C13.65 22.7259 7.41062 25.5059 6.84377 25.7639L6.80156 25.7821L1.24964 28.0419C1.14533 28.084 1.03057 28.0926 0.921207 28.0664C0.811846 28.0402 0.713285 27.9807 0.639141 27.8959C0.564997 27.8111 0.51893 27.7054 0.507304 27.5932C0.495679 27.4811 0.519069 27.3681 0.574242 27.2698L8.7192 13.0291C8.76679 12.9462 8.83533 12.8773 8.9179 12.8294C9.00048 12.7816 9.09418 12.7563 9.18957 12.7563C9.28496 12.7563 9.37866 12.7816 9.46124 12.8294C9.54381 12.8773 9.61235 12.9462 9.65993 13.0291L15.7264 23.6411Z" fill="white"/>
</g>
<g filter="url(#filter0_d_15075_122597)">
<path d="M28.5977 20.3638C29.171 20.4859 29.6315 20.7726 29.9793 21.2237C30.327 21.6655 30.5009 22.173 30.5009 22.7463C30.5009 23.5734 30.2095 24.2313 29.6268 24.7201C29.0535 25.1994 28.2499 25.4391 27.216 25.4391H22.606V15.5422H27.061C28.0666 15.5422 28.8514 15.7725 29.4153 16.233C29.9887 16.6935 30.2753 17.3186 30.2753 18.1081C30.2753 18.6908 30.1203 19.1748 29.8101 19.5602C29.5093 19.9455 29.1052 20.2134 28.5977 20.3638ZM25.0167 19.5461H26.5957C26.9905 19.5461 27.2912 19.4615 27.498 19.2923C27.7142 19.1137 27.8223 18.8553 27.8223 18.5169C27.8223 18.1785 27.7142 17.9201 27.498 17.7415C27.2912 17.5629 26.9905 17.4736 26.5957 17.4736H25.0167V19.5461ZM26.7931 23.4935C27.1972 23.4935 27.5074 23.4042 27.7236 23.2257C27.9491 23.0377 28.0619 22.7698 28.0619 22.4221C28.0619 22.0743 27.9444 21.8018 27.7095 21.6044C27.4839 21.407 27.169 21.3083 26.7649 21.3083H25.0167V23.4935H26.7931Z" fill="white"/>
<path d="M39.222 21.3788C39.222 21.6044 39.2079 21.8394 39.1797 22.0837H33.7237C33.7613 22.5725 33.9164 22.9484 34.189 23.2116C34.4709 23.4653 34.814 23.5922 35.2181 23.5922C35.8197 23.5922 36.2379 23.3385 36.4729 22.8309H39.0387C38.9071 23.3479 38.6675 23.8131 38.3197 24.2266C37.9814 24.6402 37.5537 24.9644 37.0368 25.1994C36.5199 25.4344 35.9418 25.5519 35.3027 25.5519C34.532 25.5519 33.8459 25.3874 33.2444 25.0584C32.6429 24.7295 32.1729 24.2595 31.8346 23.6486C31.4962 23.0377 31.3271 22.3234 31.3271 21.5057C31.3271 20.688 31.4915 19.9737 31.8205 19.3628C32.1588 18.7519 32.6288 18.2819 33.2303 17.953C33.8318 17.624 34.5226 17.4595 35.3027 17.4595C36.064 17.4595 36.7407 17.6193 37.3329 17.9389C37.925 18.2584 38.3855 18.7143 38.7145 19.3064C39.0528 19.8985 39.222 20.5893 39.222 21.3788ZM36.7548 20.7444C36.7548 20.3309 36.6139 20.0019 36.3319 19.7575C36.0499 19.5132 35.6975 19.391 35.2745 19.391C34.8704 19.391 34.5273 19.5085 34.2454 19.7434C33.9728 19.9784 33.8036 20.3121 33.7378 20.7444H36.7548Z" fill="white"/>
<path d="M44.7856 23.3948V25.4391H43.559C42.6849 25.4391 42.0035 25.2276 41.5148 24.8047C41.0261 24.3723 40.7817 23.6721 40.7817 22.704V19.5743H39.823V17.5723H40.7817V15.655H43.1925V17.5723H44.7715V19.5743H43.1925V22.7322C43.1925 22.9672 43.2489 23.1364 43.3617 23.2398C43.4744 23.3432 43.6624 23.3948 43.9256 23.3948H44.7856Z" fill="white"/>
<path d="M50.4202 23.3948V25.4391H49.1936C48.3196 25.4391 47.6381 25.2276 47.1494 24.8047C46.6607 24.3723 46.4163 23.6721 46.4163 22.704V19.5743H45.4576V17.5723H46.4163V15.655H48.8271V17.5723H50.4061V19.5743H48.8271V22.7322C48.8271 22.9672 48.8835 23.1364 48.9963 23.2398C49.1091 23.3432 49.297 23.3948 49.5602 23.3948H50.4202Z" fill="white"/>
<path d="M59.0859 21.3788C59.0859 21.6044 59.0718 21.8394 59.0436 22.0837H53.5876C53.6252 22.5725 53.7803 22.9484 54.0528 23.2116C54.3348 23.4653 54.6779 23.5922 55.082 23.5922C55.6835 23.5922 56.1018 23.3385 56.3367 22.8309H58.9026C58.771 23.3479 58.5313 23.8131 58.1836 24.2266C57.8452 24.6402 57.4176 24.9644 56.9007 25.1994C56.3837 25.4344 55.8057 25.5519 55.1666 25.5519C54.3959 25.5519 53.7098 25.3874 53.1083 25.0584C52.5068 24.7295 52.0368 24.2595 51.6985 23.6486C51.3601 23.0377 51.1909 22.3234 51.1909 21.5057C51.1909 20.688 51.3554 19.9737 51.6844 19.3628C52.0227 18.7519 52.4927 18.2819 53.0942 17.953C53.6957 17.624 54.3865 17.4595 55.1666 17.4595C55.9279 17.4595 56.6046 17.6193 57.1967 17.9389C57.7888 18.2584 58.2494 18.7143 58.5783 19.3064C58.9167 19.8985 59.0859 20.5893 59.0859 21.3788ZM56.6187 20.7444C56.6187 20.3309 56.4777 20.0019 56.1958 19.7575C55.9138 19.5132 55.5613 19.391 55.1384 19.391C54.7343 19.391 54.3912 19.5085 54.1092 19.7434C53.8367 19.9784 53.6675 20.3121 53.6017 20.7444H56.6187Z" fill="white"/>
<path d="M62.6757 18.8834C62.9577 18.4511 63.3101 18.1128 63.7331 17.8684C64.156 17.6146 64.6259 17.4877 65.1429 17.4877V20.0395H64.4803C63.8787 20.0395 63.4276 20.1711 63.1268 20.4342C62.8261 20.688 62.6757 21.1391 62.6757 21.7877V25.4391H60.2649V17.5723H62.6757V18.8834Z" fill="white"/>
<path d="M69.7833 25.5378C69.0596 25.5378 68.4111 25.4203 67.8378 25.1853C67.2645 24.9503 66.8039 24.6026 66.4562 24.142C66.1178 23.6815 65.9393 23.127 65.9205 22.4785H68.4863C68.5239 22.845 68.6508 23.127 68.867 23.3244C69.0831 23.5123 69.3651 23.6063 69.7129 23.6063C70.07 23.6063 70.352 23.5264 70.5587 23.3666C70.7655 23.1975 70.8689 22.9672 70.8689 22.6758C70.8689 22.4315 70.7843 22.2294 70.6151 22.0696C70.4554 21.9098 70.2533 21.7783 70.0089 21.6749C69.7739 21.5715 69.4356 21.454 68.9939 21.3224C68.3547 21.125 67.8331 20.9277 67.429 20.7303C67.0248 20.5329 66.6771 20.2416 66.3857 19.8562C66.0943 19.4709 65.9487 18.968 65.9487 18.3477C65.9487 17.4266 66.2823 16.7076 66.9496 16.1907C67.6169 15.6644 68.4863 15.4012 69.5578 15.4012C70.648 15.4012 71.5268 15.6644 72.1941 16.1907C72.8614 16.7076 73.2186 17.4313 73.2656 18.3618H70.6574C70.6386 18.0423 70.5211 17.7932 70.305 17.6146C70.0888 17.4266 69.8115 17.3327 69.4732 17.3327C69.1818 17.3327 68.9469 17.4125 68.7683 17.5723C68.5897 17.7227 68.5004 17.9436 68.5004 18.2349C68.5004 18.5545 68.6508 18.8036 68.9516 18.9821C69.2523 19.1607 69.7223 19.3534 70.3614 19.5602C71.0005 19.7763 71.5174 19.9831 71.9122 20.1805C72.3163 20.3778 72.6641 20.6645 72.9554 21.0405C73.2468 21.4164 73.3925 21.9004 73.3925 22.4926C73.3925 23.0565 73.2468 23.5687 72.9554 24.0293C72.6735 24.4898 72.2599 24.8563 71.7148 25.1289C71.1697 25.4015 70.5258 25.5378 69.7833 25.5378Z" fill="white"/>
<path d="M78.3642 25.5519C77.5935 25.5519 76.898 25.3874 76.2777 25.0584C75.6668 24.7295 75.1828 24.2595 74.8256 23.6486C74.4779 23.0377 74.304 22.3234 74.304 21.5057C74.304 20.6974 74.4826 19.9878 74.8397 19.3769C75.1969 18.7566 75.6856 18.2819 76.3059 17.953C76.9262 17.624 77.6217 17.4595 78.3924 17.4595C79.1631 17.4595 79.8586 17.624 80.479 17.953C81.0993 18.2819 81.588 18.7566 81.9452 19.3769C82.3023 19.9878 82.4809 20.6974 82.4809 21.5057C82.4809 22.314 82.2976 23.0283 81.9311 23.6486C81.5739 24.2595 81.0805 24.7295 80.4508 25.0584C79.8304 25.3874 79.1349 25.5519 78.3642 25.5519ZM78.3642 23.4653C78.8248 23.4653 79.2148 23.2962 79.5344 22.9578C79.8633 22.6194 80.0278 22.1354 80.0278 21.5057C80.0278 20.876 79.868 20.3919 79.5485 20.0536C79.2383 19.7152 78.853 19.5461 78.3924 19.5461C77.9225 19.5461 77.5324 19.7152 77.2223 20.0536C76.9121 20.3825 76.7571 20.8666 76.7571 21.5057C76.7571 22.1354 76.9074 22.6194 77.2082 22.9578C77.5183 23.2962 77.9037 23.4653 78.3642 23.4653Z" fill="white"/>
<path d="M83.1878 21.5057C83.1878 20.688 83.3522 19.9737 83.6812 19.3628C84.0195 18.7519 84.4848 18.2819 85.0769 17.953C85.6784 17.624 86.3645 17.4595 87.1352 17.4595C88.1221 17.4595 88.9445 17.718 89.6024 18.2349C90.2697 18.7519 90.7067 19.4803 90.9135 20.4201H88.3477C88.1315 19.8186 87.7132 19.5179 87.0929 19.5179C86.6512 19.5179 86.2987 19.6917 86.0356 20.0395C85.7724 20.3778 85.6408 20.8666 85.6408 21.5057C85.6408 22.1448 85.7724 22.6382 86.0356 22.986C86.2987 23.3244 86.6512 23.4935 87.0929 23.4935C87.7132 23.4935 88.1315 23.1928 88.3477 22.5913H90.9135C90.7067 23.5123 90.2697 24.236 89.6024 24.7624C88.9351 25.2887 88.1127 25.5519 87.1352 25.5519C86.3645 25.5519 85.6784 25.3874 85.0769 25.0584C84.4848 24.7295 84.0195 24.2595 83.6812 23.6486C83.3522 23.0377 83.1878 22.3234 83.1878 21.5057Z" fill="white"/>
<path d="M93.3227 16.7546C92.8998 16.7546 92.552 16.6325 92.2795 16.3881C92.0163 16.1343 91.8847 15.8242 91.8847 15.4576C91.8847 15.0817 92.0163 14.7715 92.2795 14.5271C92.552 14.2734 92.8998 14.1465 93.3227 14.1465C93.7363 14.1465 94.0746 14.2734 94.3378 14.5271C94.6104 14.7715 94.7467 15.0817 94.7467 15.4576C94.7467 15.8242 94.6104 16.1343 94.3378 16.3881C94.0746 16.6325 93.7363 16.7546 93.3227 16.7546ZM94.5211 17.5723V25.4391H92.1103V17.5723H94.5211Z" fill="white"/>
<path d="M95.6961 21.4916C95.6961 20.6833 95.8464 19.9737 96.1472 19.3628C96.4574 18.7519 96.8756 18.2819 97.4019 17.953C97.9283 17.624 98.5157 17.4595 99.1642 17.4595C99.7187 17.4595 100.203 17.5723 100.616 17.7979C101.039 18.0235 101.364 18.3195 101.589 18.6861V17.5723H104V25.4391H101.589V24.3253C101.354 24.6919 101.025 24.9879 100.602 25.2135C100.189 25.4391 99.7046 25.5519 99.1501 25.5519C98.511 25.5519 97.9283 25.3874 97.4019 25.0584C96.8756 24.7201 96.4574 24.2454 96.1472 23.6345C95.8464 23.0142 95.6961 22.2999 95.6961 21.4916ZM101.589 21.5057C101.589 20.9042 101.42 20.4295 101.082 20.0818C100.753 19.734 100.348 19.5602 99.8691 19.5602C99.3898 19.5602 98.9809 19.734 98.6426 20.0818C98.3136 20.4201 98.1491 20.8901 98.1491 21.4916C98.1491 22.0931 98.3136 22.5725 98.6426 22.9296C98.9809 23.2774 99.3898 23.4512 99.8691 23.4512C100.348 23.4512 100.753 23.2774 101.082 22.9296C101.42 22.5819 101.589 22.1072 101.589 21.5057Z" fill="white"/>
<path d="M108.062 15.0065V25.4391H105.651V15.0065H108.062Z" fill="white"/>
</g>
<defs>
<filter id="filter0_d_15075_122597" x="22.235" y="13.6836" width="86.3206" height="12.9094" filterUnits="userSpaceOnUse" color-interpolation-filters="sRGB">
<feFlood flood-opacity="0" result="BackgroundImageFix"/>
<feColorMatrix in="SourceAlpha" type="matrix" values="0 0 0 0 0 0 0 0 0 0 0 0 0 0 0 0 0 0 127 0" result="hardAlpha"/>
<feOffset dy="0.649255"/>
<feGaussianBlur stdDeviation="0.185501"/>
<feComposite in2="hardAlpha" operator="out"/>
<feColorMatrix type="matrix" values="0 0 0 0 0 0 0 0 0 0 0 0 0 0 0 0 0 0 0.06 0"/>
<feBlend mode="normal" in2="BackgroundImageFix" result="effect1_dropShadow_15075_122597"/>
<feBlend mode="normal" in="SourceGraphic" in2="effect1_dropShadow_15075_122597" result="shape"/>
</filter>
<clipPath id="clip0_15075_122597">
<rect width="17.3774" height="15.3293" fill="white" transform="translate(0.5 12.7544)"/>
</clipPath>
</defs>
</svg>
