<svg width="260" height="122" viewBox="0 0 260 122" fill="none" xmlns="http://www.w3.org/2000/svg">
<path d="M0 35.3873V1.01555H12.1339C14.41 1.01555 16.4092 1.44616 18.1317 2.30738C19.8541 3.16859 21.192 4.3989 22.1455 5.9983C23.1298 7.5977 23.6219 9.47392 23.6219 11.627C23.6219 13.78 23.1298 15.6562 22.1455 17.2556C21.192 18.8243 19.8541 20.0546 18.1317 20.9466C16.44 21.8078 14.4407 22.2384 12.1339 22.2384H4.52138V35.3873H0ZM4.52138 18.0861H12.2723C13.6564 18.0861 14.856 17.8246 15.871 17.3018C16.886 16.7789 17.6703 16.0253 18.2239 15.0411C18.7776 14.0568 19.0544 12.9188 19.0544 11.627C19.0544 10.3044 18.7776 9.16635 18.2239 8.21286C17.6703 7.22861 16.886 6.47505 15.871 5.95217C14.856 5.42929 13.6564 5.16784 12.2723 5.16784H4.52138V18.0861Z" fill="white"/>
<path d="M40.1388 35.9409C37.7397 35.9409 35.5713 35.3873 33.6335 34.28C31.6958 33.142 30.1579 31.5887 29.0199 29.6202C27.8818 27.6517 27.3128 25.4218 27.3128 22.9304C27.3128 20.4391 27.8665 18.2245 28.9737 16.2868C30.1118 14.349 31.6497 12.8111 33.5874 11.6731C35.5251 10.5351 37.7089 9.96605 40.1388 9.96605C42.5379 9.96605 44.7063 10.5351 46.644 11.6731C48.5818 12.7804 50.1043 14.3029 51.2116 16.2406C52.3496 18.1784 52.9186 20.4083 52.9186 22.9304C52.9186 25.4526 52.3342 27.6979 51.1654 29.6664C49.9966 31.6041 48.4434 33.142 46.5056 34.28C44.5986 35.3873 42.4764 35.9409 40.1388 35.9409ZM40.1388 31.7886C41.6767 31.7886 43.0608 31.4042 44.2911 30.6352C45.5521 29.8663 46.5364 28.8051 47.2438 27.4518C47.982 26.0985 48.3511 24.5913 48.3511 22.9304C48.3511 21.2388 47.982 19.747 47.2438 18.4552C46.5364 17.1326 45.5521 16.0868 44.2911 15.3179C43.0608 14.5182 41.6767 14.1183 40.1388 14.1183C38.5701 14.1183 37.1553 14.5182 35.8942 15.3179C34.6639 16.0868 33.6797 17.1326 32.9415 18.4552C32.2033 19.747 31.8342 21.2388 31.8342 22.9304C31.8342 24.5913 32.2033 26.0985 32.9415 27.4518C33.6797 28.8051 34.6639 29.8663 35.8942 30.6352C37.1553 31.4042 38.5701 31.7886 40.1388 31.7886Z" fill="white"/>
<path d="M63.7852 35.3873L55.2499 10.5197H60.002L66.7841 31.3273L65.1232 31.2811L71.7668 10.5197H75.8268L82.4705 31.2811L80.8096 31.3273L87.6378 10.5197H92.3437L83.8085 35.3873H79.7023L73.1509 14.6258H74.4427L67.8913 35.3873H63.7852Z" fill="white"/>
<path d="M107.172 35.9409C104.773 35.9409 102.636 35.3719 100.759 34.2339C98.8831 33.0958 97.4067 31.5426 96.3302 29.5741C95.2537 27.5748 94.7154 25.3449 94.7154 22.8843C94.7154 20.3929 95.2383 18.1784 96.2841 16.2406C97.3606 14.3029 98.8062 12.7804 100.621 11.6731C102.466 10.5351 104.527 9.96605 106.803 9.96605C108.649 9.96605 110.279 10.3044 111.694 10.9811C113.139 11.627 114.354 12.5189 115.338 13.657C116.353 14.7643 117.122 16.0407 117.645 17.4863C118.199 18.9012 118.476 20.3775 118.476 21.9154C118.476 22.2538 118.445 22.6382 118.383 23.0688C118.353 23.4687 118.307 23.8532 118.245 24.2222H97.8527V20.5313H115.754L113.724 22.1922C114 20.5928 113.847 19.1626 113.262 17.9015C112.678 16.6405 111.817 15.6408 110.679 14.9027C109.541 14.1645 108.249 13.7954 106.803 13.7954C105.358 13.7954 104.035 14.1645 102.835 14.9027C101.636 15.6408 100.698 16.702 100.021 18.0861C99.3752 19.4394 99.1138 21.0542 99.2368 22.9304C99.1138 24.7451 99.3906 26.3445 100.067 27.7286C100.775 29.082 101.759 30.1431 103.02 30.9121C104.312 31.6502 105.711 32.0193 107.218 32.0193C108.879 32.0193 110.279 31.6349 111.417 30.8659C112.555 30.097 113.478 29.1127 114.185 27.9132L117.784 29.7586C117.292 30.8967 116.523 31.9424 115.477 32.8959C114.462 33.8187 113.247 34.5568 111.832 35.1105C110.448 35.6641 108.895 35.9409 107.172 35.9409Z" fill="white"/>
<path d="M124.07 35.3873V10.5197H128.269V15.0872L127.807 14.4413C128.392 13.0264 129.284 11.9807 130.483 11.304C131.683 10.5966 133.144 10.2429 134.866 10.2429H136.389V14.3029H134.22C132.467 14.3029 131.052 14.8565 129.976 15.9638C128.899 17.0403 128.361 18.5782 128.361 20.5775V35.3873H124.07Z" fill="white"/>
<path d="M151.642 35.9409C149.243 35.9409 147.105 35.3719 145.229 34.2339C143.353 33.0958 141.876 31.5426 140.8 29.5741C139.723 27.5748 139.185 25.3449 139.185 22.8843C139.185 20.3929 139.708 18.1784 140.754 16.2406C141.83 14.3029 143.276 12.7804 145.09 11.6731C146.936 10.5351 148.997 9.96605 151.273 9.96605C153.118 9.96605 154.748 10.3044 156.163 10.9811C157.609 11.627 158.824 12.5189 159.808 13.657C160.823 14.7643 161.592 16.0407 162.115 17.4863C162.668 18.9012 162.945 20.3775 162.945 21.9154C162.945 22.2538 162.914 22.6382 162.853 23.0688C162.822 23.4687 162.776 23.8532 162.715 24.2222H142.322V20.5313H160.223L158.193 22.1922C158.47 20.5928 158.316 19.1626 157.732 17.9015C157.147 16.6405 156.286 15.6408 155.148 14.9027C154.01 14.1645 152.718 13.7954 151.273 13.7954C149.827 13.7954 148.504 14.1645 147.305 14.9027C146.105 15.6408 145.167 16.702 144.491 18.0861C143.845 19.4394 143.583 21.0542 143.706 22.9304C143.583 24.7451 143.86 26.3445 144.537 27.7286C145.244 29.082 146.228 30.1431 147.489 30.9121C148.781 31.6502 150.181 32.0193 151.688 32.0193C153.349 32.0193 154.748 31.6349 155.886 30.8659C157.024 30.097 157.947 29.1127 158.655 27.9132L162.253 29.7586C161.761 30.8967 160.992 31.9424 159.946 32.8959C158.931 33.8187 157.716 34.5568 156.302 35.1105C154.917 35.6641 153.364 35.9409 151.642 35.9409Z" fill="white"/>
<path d="M179.843 35.9409C177.506 35.9409 175.399 35.3719 173.522 34.2339C171.677 33.0958 170.216 31.5426 169.139 29.5741C168.063 27.6056 167.525 25.4064 167.525 22.9766C167.525 20.4852 168.063 18.2706 169.139 16.3329C170.216 14.3644 171.677 12.8111 173.522 11.6731C175.399 10.5351 177.506 9.96605 179.843 9.96605C181.904 9.96605 183.734 10.412 185.333 11.304C186.933 12.1652 188.194 13.334 189.117 14.8104L188.424 15.8715V0.461914H192.761V35.3873H188.563V30.0816L189.117 30.8198C188.255 32.4499 186.994 33.711 185.333 34.603C183.703 35.4949 181.873 35.9409 179.843 35.9409ZM180.212 31.7886C181.781 31.7886 183.18 31.4042 184.411 30.6352C185.641 29.8663 186.61 28.8205 187.317 27.4979C188.055 26.1446 188.424 24.6375 188.424 22.9766C188.424 21.2849 188.055 19.7778 187.317 18.4552C186.61 17.1018 185.641 16.0407 184.411 15.2718C183.18 14.5028 181.781 14.1183 180.212 14.1183C178.674 14.1183 177.275 14.5182 176.014 15.3179C174.783 16.0868 173.815 17.1326 173.107 18.4552C172.4 19.747 172.046 21.2541 172.046 22.9766C172.046 24.6375 172.4 26.1446 173.107 27.4979C173.815 28.8205 174.783 29.8663 176.014 30.6352C177.244 31.4042 178.644 31.7886 180.212 31.7886Z" fill="white"/>
<path d="M220.249 35.9409C218.25 35.9409 216.42 35.4949 214.759 34.603C213.129 33.711 211.868 32.4499 210.976 30.8198L211.576 30.0816V35.3873H207.377V0.461914H211.668V15.8715L211.022 14.8104C211.945 13.334 213.206 12.1652 214.805 11.304C216.405 10.412 218.235 9.96605 220.295 9.96605C222.633 9.96605 224.725 10.5351 226.57 11.6731C228.446 12.8111 229.923 14.3644 230.999 16.3329C232.076 18.2706 232.614 20.4852 232.614 22.9766C232.614 25.4064 232.076 27.6056 230.999 29.5741C229.923 31.5426 228.446 33.0958 226.57 34.2339C224.725 35.3719 222.618 35.9409 220.249 35.9409ZM219.926 31.7886C221.495 31.7886 222.894 31.4042 224.125 30.6352C225.355 29.8663 226.309 28.8205 226.985 27.4979C227.693 26.1446 228.046 24.6375 228.046 22.9766C228.046 21.2541 227.693 19.747 226.985 18.4552C226.309 17.1326 225.355 16.0868 224.125 15.3179C222.894 14.5182 221.495 14.1183 219.926 14.1183C218.358 14.1183 216.943 14.5028 215.682 15.2718C214.451 16.0407 213.467 17.1018 212.729 18.4552C212.022 19.7778 211.668 21.2849 211.668 22.9766C211.668 24.6375 212.022 26.1446 212.729 27.4979C213.467 28.8205 214.451 29.8663 215.682 30.6352C216.943 31.4042 218.358 31.7886 219.926 31.7886Z" fill="white"/>
<path d="M239.127 45.5373C238.574 45.5373 238.02 45.4912 237.467 45.3989C236.913 45.3374 236.39 45.199 235.898 44.9837V41.1544C236.236 41.1851 236.651 41.2466 237.144 41.3389C237.666 41.4312 238.174 41.4773 238.666 41.4773C240.112 41.4773 241.204 41.1544 241.942 40.5085C242.711 39.8625 243.434 38.7706 244.11 37.2328L245.679 33.4957L245.587 37.2328L234.975 10.5197H239.635L247.893 31.7425H246.509L254.722 10.5197H259.474L248.262 38.34C247.74 39.6626 247.063 40.8775 246.232 41.9848C245.433 43.0921 244.449 43.9533 243.28 44.5685C242.111 45.2144 240.727 45.5373 239.127 45.5373Z" fill="white"/>
<path d="M94.6435 121.426C92.1595 121.426 90.122 120.938 88.531 119.962C86.968 118.958 85.8097 117.633 85.0561 115.988C84.3025 114.315 83.9257 112.474 83.9257 110.466V61.6887L94.3086 57.7056V106.199C94.3086 108.43 94.4342 110.02 94.6854 110.968C94.9645 111.888 95.4669 112.446 96.1926 112.641C96.9183 112.809 97.965 112.892 99.3326 112.892L98.4115 121.426H94.6435Z" fill="white"/>
<path d="M102.55 71.4433V65.5833L112.932 61.6895V71.4433H102.55Z" fill="white"/>
<path d="M140.298 121.426C135.748 121.426 131.868 120.436 128.659 118.456C125.449 116.476 122.993 113.841 121.29 110.55C119.616 107.259 118.778 103.661 118.778 99.7568C118.778 95.8245 119.616 92.1989 121.29 88.8802C122.993 85.5614 125.449 82.912 128.659 80.9319C131.868 78.9239 135.748 77.9199 140.298 77.9199C144.847 77.9199 148.727 78.9239 151.936 80.9319C155.146 82.912 157.588 85.5614 159.263 88.8802C160.966 92.1989 161.817 95.8245 161.817 99.7568C161.817 103.661 160.966 107.259 159.263 110.55C157.588 113.841 155.146 116.476 151.936 118.456C148.727 120.436 144.847 121.426 140.298 121.426ZM140.298 112.892C143.786 112.892 146.466 111.679 148.336 109.253C150.234 106.799 151.183 103.633 151.183 99.7568C151.183 95.8245 150.234 92.6312 148.336 90.177C146.466 87.6949 143.786 86.4539 140.298 86.4539C136.837 86.4539 134.157 87.6949 132.259 90.177C130.361 92.6312 129.412 95.8245 129.412 99.7568C129.412 103.633 130.361 106.799 132.259 109.253C134.157 111.679 136.837 112.892 140.298 112.892Z" fill="white"/>
<path d="M113.267 121.412C110.783 121.412 108.746 120.923 107.155 119.947C105.592 118.943 104.434 117.619 103.68 115.973C102.926 114.3 102.55 112.459 102.55 110.451V77.538H112.932V106.184C112.932 108.415 113.058 110.005 113.309 110.953C113.588 111.874 114.091 112.431 114.816 112.627C115.542 112.794 116.589 112.878 117.956 112.878L117.035 121.412H113.267Z" fill="white"/>
<path d="M53.879 96.5326C54.8559 96.7836 55.7211 96.9509 56.4747 97.0346C57.2562 97.1183 58.1215 97.1601 59.0704 97.1601C62.4756 97.1601 65.1132 96.8533 66.9832 96.2398C68.8812 95.5983 70.1929 94.7895 70.9186 93.8134C71.6722 92.8094 72.049 91.7776 72.049 90.7178C72.049 89.4628 71.7001 88.5425 71.0024 87.9568C70.3325 87.3711 69.565 87.0086 68.6997 86.8691C67.8624 86.7018 67.1926 86.6182 66.6902 86.6182C64.4294 86.6182 62.4895 87.2456 60.8707 88.5006C59.2519 89.7556 57.954 91.2198 56.9771 92.8931C56.0281 94.5664 55.4001 96.0306 55.0931 97.2856L54.3395 102.473C54.3674 105.039 54.8419 107.088 55.763 108.622C56.712 110.128 57.9261 111.216 59.4054 111.885C60.8846 112.555 62.4197 112.889 64.0107 112.889C66.5227 112.889 68.8951 112.555 71.128 111.885C73.3608 111.216 75.3704 110.407 77.1567 109.459L75.9845 118.244C74.2819 119.164 72.2305 119.931 69.8301 120.545C67.4577 121.13 64.848 121.423 62.0011 121.423C57.7586 121.423 54.2697 120.628 51.5345 119.039C48.7992 117.421 46.7756 115.26 45.4638 112.555C44.152 109.822 43.4961 106.782 43.4961 103.435C43.4961 100.228 44.0543 97.1183 45.1707 94.1063C46.2872 91.0943 47.8781 88.3891 49.9435 85.9907C52.0089 83.5643 54.493 81.64 57.3958 80.2177C60.2985 78.7954 63.5362 78.0842 67.1088 78.0842C71.5467 78.0842 74.9239 79.1997 77.2405 81.4308C79.585 83.6341 80.7572 86.5624 80.7572 90.2158C80.7572 92.7537 80.213 94.9011 79.1245 96.6581C78.0359 98.4151 76.5427 99.8374 74.6447 100.925C72.7747 101.985 70.6395 102.752 68.2392 103.226C65.8668 103.7 63.3687 103.937 60.7451 103.937C59.21 103.937 57.7865 103.867 56.4747 103.728C55.1629 103.588 54.0883 103.407 53.251 103.184L53.879 96.5326Z" fill="white"/>
<path d="M0.0912821 121.417L0.0898438 61.6856L10.8091 57.7002V83.7779L29.5712 83.7818L29.5697 61.6895L40.289 57.7041V121.421H29.5712V93.8217L10.8091 93.8179V121.417H0.0912821Z" fill="white"/>
</svg>
