<svg width="19" height="16" viewBox="0 0 19 16" fill="none" xmlns="http://www.w3.org/2000/svg">
<path fill-rule="evenodd" clip-rule="evenodd" d="M0.480934 3.92081C0.560276 3.58244 0.833184 3.33049 1.17333 3.28158L17.486 0.935976C17.8343 0.885888 18.1826 1.05875 18.3631 1.37126C18.5435 1.68377 18.519 2.07184 18.3015 2.34846L8.11381 15.3028C7.90138 15.573 7.54672 15.6833 7.21402 15.5829C6.88131 15.4824 6.63548 15.1907 6.59031 14.8428L5.78425 8.63364L0.810014 4.831C0.531298 4.61793 0.401591 4.25918 0.480934 3.92081ZM7.50802 8.64878L8.02107 12.6009L14.1406 4.81947L7.50802 8.64878ZM13.2656 3.30393L6.63302 7.13324L3.46695 4.71288L13.2656 3.30393Z" fill="white"/>
</svg>
