<svg width="19" height="16" viewBox="0 0 19 16" fill="none" xmlns="http://www.w3.org/2000/svg">
<path fill-rule="evenodd" clip-rule="evenodd" d="M0.480934 3.90568C0.560276 3.56731 0.833184 3.31535 1.17333 3.26645L17.486 0.920839C17.8343 0.870751 18.1826 1.04361 18.3631 1.35612C18.5435 1.66864 18.519 2.0567 18.3015 2.33333L8.11381 15.2877C7.90138 15.5578 7.54672 15.6682 7.21402 15.5677C6.88131 15.4672 6.63548 15.1755 6.59031 14.8276L5.78425 8.6185L0.810014 4.81587C0.531298 4.6028 0.401591 4.24405 0.480934 3.90568ZM7.50802 8.63364L8.02107 12.5857L14.1406 4.80433L7.50802 8.63364ZM13.2656 3.2888L6.63302 7.1181L3.46695 4.69775L13.2656 3.2888Z" fill="white"/>
</svg>
