<svg width="343" height="343" viewBox="0 0 343 343" fill="none" xmlns="http://www.w3.org/2000/svg">
<g clip-path="url(#clip0_14801_59013)">
<rect width="343" height="343" rx="16" fill="#2C67BC"/>
<g clip-path="url(#clip1_14801_59013)">
<rect y="-25" width="343" height="394" rx="8" fill="#566789" fill-opacity="0.1"/>
<rect width="343" height="587" transform="translate(0 -34)" fill="#2C67BC"/>
<mask id="mask0_14801_59013" style="mask-type:alpha" maskUnits="userSpaceOnUse" x="0" y="-34" width="343" height="587">
<rect y="-34" width="342.762" height="587" rx="14" fill="#1C1D23"/>
</mask>
<g mask="url(#mask0_14801_59013)">
<g filter="url(#filter0_f_14801_59013)">
<path d="M87.0013 63.8866L86.9231 64.0798C82.7557 74.407 80.3491 85.4963 80.7044 94.8739L83.9544 131.708C86.6131 150.334 86.4359 180.783 83.5629 199.374L79.896 236.165C78.9602 254.966 89.073 280.808 102.364 293.581L129.687 317.24C144.221 328.451 164.79 350.107 175.391 365.369L197.792 394.09C209.91 408.069 234.615 418.903 252.693 418.158L288.085 414.781C305.982 412.009 335.242 412.195 353.104 415.183L388.462 419.003C406.529 419.977 431.36 409.454 443.634 395.627L466.369 367.194C477.145 352.067 497.957 330.665 512.62 319.634L540.21 296.325C546.847 290.094 552.742 280.66 556.924 270.444L557.219 269.715C561.322 259.463 563.689 248.485 563.336 239.186L560.086 202.355C557.427 183.73 557.602 153.285 560.477 134.69L564.147 97.9052C565.079 79.099 554.968 53.2619 541.679 40.4837L514.355 16.8288C499.821 5.61295 479.255 -16.0443 468.657 -31.3082L446.251 -60.0189C434.135 -74.0036 409.429 -84.8349 391.35 -84.087L355.954 -80.7094C338.055 -77.9435 308.797 -78.1299 290.934 -81.117L255.582 -84.9379C237.513 -85.9083 212.684 -75.3904 200.41 -61.5599L177.678 -33.1275C166.902 -17.997 146.089 3.4014 131.426 14.4327L103.83 37.7451C97.1324 44.0295 91.19 53.5694 87.0013 63.8866Z" fill="#2C67BC"/>
</g>
<g filter="url(#filter1_f_14801_59013)">
<path d="M-132.196 120.69L-132.266 120.831C-136.021 128.401 -138.488 136.659 -138.761 143.793L-138.432 171.929C-137.496 186.219 -139.394 209.298 -142.647 223.215L-147.556 250.884C-149.353 265.081 -143.188 285.312 -133.858 295.833L-114.527 315.489C-104.164 324.902 -89.8349 342.617 -82.6861 354.854L-67.3766 378.04C-59.0056 389.405 -40.9138 399.167 -27.1743 399.739L-0.164413 399.398C13.5562 398.418 35.7141 400.398 49.0754 403.787L75.6413 408.905C89.2753 410.778 108.697 404.355 118.799 394.638L137.668 374.505C146.709 363.711 163.717 348.788 175.466 341.344L197.719 325.399C203.11 321.092 208.121 314.308 211.883 306.824L212.149 306.288C215.85 298.771 218.281 290.595 218.552 283.522L218.223 255.389C217.288 241.098 219.182 218.023 222.437 204.103L227.347 176.439C229.145 162.237 222.98 142.01 213.65 131.486L194.319 111.833C183.956 102.416 169.627 84.6996 162.481 72.4615L147.168 49.2803C138.798 37.9163 120.707 28.1511 106.966 27.5821L79.9533 27.9213C66.2328 28.8955 44.0748 26.9179 30.7136 23.5314L4.15147 18.4139C-9.4821 16.5438 -28.9039 22.9615 -39.0037 32.679L-57.8736 52.813C-66.9141 63.6104 -83.9217 78.5301 -95.6707 85.9748L-117.929 101.92C-123.369 106.268 -128.424 113.129 -132.196 120.69Z" fill="#2C67BC"/>
</g>
<g filter="url(#filter2_f_14801_59013)">
<path fill-rule="evenodd" clip-rule="evenodd" d="M172.181 323.54L146.226 301.046C133.6 288.9 123.993 264.33 124.881 246.455L128.365 211.473C131.094 193.798 131.262 164.847 128.737 147.138L125.65 112.115C125.31 103.199 127.598 92.6549 131.557 82.8358L131.632 82.6526C135.611 72.8425 141.256 63.7715 147.618 57.7963L150.938 54.9883L162.48 72.4616C169.626 84.7014 183.955 102.417 194.317 111.833L213.648 131.486C222.978 142.01 229.142 162.237 227.345 176.44L222.435 204.104C219.181 218.021 217.286 241.099 218.221 255.39L218.55 283.522C218.28 290.596 215.849 298.772 212.147 306.289L211.882 306.824C208.12 314.309 203.109 321.091 197.718 325.399L184.9 334.581C180.433 330.35 176.079 326.55 172.181 323.54Z" fill="#2C67BC"/>
</g>
</g>
<circle opacity="0.1" cx="172" cy="166" r="140" fill="white"/>
<circle opacity="0.15" cx="172" cy="166" r="87.5" fill="white"/>
<circle opacity="0.08" cx="172" cy="166" r="52.5" fill="white"/>
<circle opacity="0.2" cx="78.375" cy="178.25" r="6.125" fill="white"/>
<circle opacity="0.1" cx="45.125" cy="124" r="3.5" fill="white"/>
<circle opacity="0.2" cx="264.312" cy="207.562" r="3.9375" fill="white"/>
<circle opacity="0.1" cx="266.938" cy="111.312" r="6.5625" fill="white"/>
<circle opacity="0.2" cx="110.312" cy="65.8125" r="3.9375" fill="white"/>
<circle opacity="0.1" cx="215.75" cy="81.125" r="3.5" fill="white"/>
</g>
<g opacity="0.8">
<path d="M171.995 114.953C143.871 114.953 120.953 137.871 120.953 165.995C120.953 194.119 143.871 217.036 171.995 217.036C200.119 217.036 223.036 194.119 223.036 165.995C223.036 137.871 200.119 114.953 171.995 114.953ZM196.393 154.255L167.452 183.196C166.737 183.91 165.768 184.319 164.747 184.319C163.726 184.319 162.756 183.91 162.042 183.196L147.597 168.751C146.117 167.271 146.117 164.821 147.597 163.341C149.077 161.86 151.527 161.86 153.007 163.341L164.747 175.08L190.982 148.845C192.463 147.365 194.913 147.365 196.393 148.845C197.873 150.325 197.873 152.724 196.393 154.255Z" fill="white"/>
</g>
</g>
<defs>
<filter id="filter0_f_14801_59013" x="-40.1641" y="-205" width="724.371" height="744.066" filterUnits="userSpaceOnUse" color-interpolation-filters="sRGB">
<feFlood flood-opacity="0" result="BackgroundImageFix"/>
<feBlend mode="normal" in="SourceGraphic" in2="BackgroundImageFix" result="shape"/>
<feGaussianBlur stdDeviation="60" result="effect1_foregroundBlur_14801_59013"/>
</filter>
<filter id="filter1_f_14801_59013" x="-267.867" y="-101.91" width="615.527" height="631.141" filterUnits="userSpaceOnUse" color-interpolation-filters="sRGB">
<feFlood flood-opacity="0" result="BackgroundImageFix"/>
<feBlend mode="normal" in="SourceGraphic" in2="BackgroundImageFix" result="shape"/>
<feGaussianBlur stdDeviation="60" result="effect1_foregroundBlur_14801_59013"/>
</filter>
<filter id="filter2_f_14801_59013" x="4.82422" y="-65.0117" width="342.832" height="519.594" filterUnits="userSpaceOnUse" color-interpolation-filters="sRGB">
<feFlood flood-opacity="0" result="BackgroundImageFix"/>
<feBlend mode="normal" in="SourceGraphic" in2="BackgroundImageFix" result="shape"/>
<feGaussianBlur stdDeviation="60" result="effect1_foregroundBlur_14801_59013"/>
</filter>
<clipPath id="clip0_14801_59013">
<rect width="343" height="343" rx="16" fill="white"/>
</clipPath>
<clipPath id="clip1_14801_59013">
<rect y="-25" width="343" height="394" rx="8" fill="white"/>
</clipPath>
</defs>
</svg>
